<svg xmlns="http://www.w3.org/2000/svg" viewBox="0, -40, 234.5, 234.5" width="80" height="80">
  <title>argentsealogo-white</title>
  <path d="M228.73,399.7c-7,1.2-20.39,5-20.39,5l0-.7a12.18,12.18,0,0,0,3.82-2.33,5.72,5.72,0,0,0,2-4.07,8.47,8.47,0,0,0-.75-3.3l-.48-1.2-2.72-6.75-13.51,4L195,395.28l-.83,2.23a22.34,22.34,0,0,0-1.56,6.29,4.07,4.07,0,0,0,.44,2.08,2.77,2.77,0,0,0,1.31,1.27,4.91,4.91,0,0,0,3,.12l0,.75L183.84,413l0-.74a7.25,7.25,0,0,0,2.73-1.73,11.32,11.32,0,0,0,2-2.69,23.86,23.86,0,0,0,1.48-3.06c.67-1.58,2.5-6.32,3.61-9.41l12.17-33.86,1.75-.52,12.32,30c.92,2.26,1.9,5.1,2.46,6a5,5,0,0,0,1.86,1.91,3.94,3.94,0,0,0,1.66.39,16.86,16.86,0,0,0,2.84-.32Zm-18.94-14.57-5.94-14.83-6.59,18.57Z" transform="translate(-183.84 -357.73)" fill="#fff"/>
  <path d="M228.6,378.9l.13,6.58A10.81,10.81,0,0,0,229,388a2.57,2.57,0,0,0,.85,1.38A2.68,2.68,0,0,0,231,390a6.23,6.23,0,0,0,1.8-.05v.43l-11.6,2.48v-.42a3,3,0,0,0,1.36-.64,8,8,0,0,0,1-1,3.77,3.77,0,0,0,.73-1.67,14.49,14.49,0,0,0,.16-2.87l-.26-13.69a13.58,13.58,0,0,0-.27-2.79,2.46,2.46,0,0,0-.85-1.36,2.69,2.69,0,0,0-1.23-.58,6.36,6.36,0,0,0-1.8,0v-.43l9.27-1.58c1.55-.26,2.57-.43,3.06-.5a14.89,14.89,0,0,1,4.69,0,4.91,4.91,0,0,1,4.11,5,6.54,6.54,0,0,1-2.19,5,7.68,7.68,0,0,1-1.51,1.12,17.75,17.75,0,0,1-2.23,1,4.77,4.77,0,0,1,1.73.68,3.44,3.44,0,0,1,.83.83q.38.53,1.14,1.89c1.18,2.07,6.75,11.16,7.35,12.1a12.33,12.33,0,0,0,1.52,2,2.42,2.42,0,0,0,.94.64,3.29,3.29,0,0,0,1.26.13v.42l-6.49.93c-.33-.63-.56-1.07-.66-1.24l-1.4-2.72c-.84-1.63-6.24-10.48-7.09-11.7a7.57,7.57,0,0,0-2.3-2.38,2.8,2.8,0,0,0-1.13-.34,5.5,5.5,0,0,0-1.46.09Zm0-.41.73-.13a17,17,0,0,0,3.41-.84,5.53,5.53,0,0,0,1.91-1.41,7,7,0,0,0,1.93-4.95,5.87,5.87,0,0,0-.64-2.66,4.59,4.59,0,0,0-1.66-1.85,4.15,4.15,0,0,0-1.94-.55,15,15,0,0,0-3.18.29l-.79.13Z" transform="translate(-183.84 -357.73)" fill="#fff"/>
  <path d="M266,362.2l-.06,7.36-.44.07a11.08,11.08,0,0,0-3.16-5.28,6.4,6.4,0,0,0-4.9-1.35,9.46,9.46,0,0,0-3.92,1.2,11.17,11.17,0,0,0-3.15,3,15.75,15.75,0,0,0-3.19,8.94,13.15,13.15,0,0,0,.51,4.32,9.44,9.44,0,0,0,1.86,3.44,6.77,6.77,0,0,0,6.11,2.45,7.4,7.4,0,0,0,2.75-.81,6.73,6.73,0,0,0,2.15-1.7,5.36,5.36,0,0,0,1.25-3.25,2.44,2.44,0,0,0-.93-2.32,5.27,5.27,0,0,0-3.33-.42v-.39l12.16-1.19,0,.39a9.66,9.66,0,0,0-2.37.64,2.35,2.35,0,0,0-1,1.06,8.45,8.45,0,0,0-.48,3c0,.4,0,1,0,1.89l0,.39a3.74,3.74,0,0,0-1.05-.14,2.7,2.7,0,0,0-1.09.5,15.79,15.79,0,0,1-3.9,1.94,20.86,20.86,0,0,1-4.66,1,16.17,16.17,0,0,1-6-.42,9,9,0,0,1-4.26-2.5,8.34,8.34,0,0,1-1.8-3.2,12.21,12.21,0,0,1-.52-4.11,14.41,14.41,0,0,1,1.44-5.77,13.93,13.93,0,0,1,3.6-4.65,16.22,16.22,0,0,1,4.25-2.53,17.83,17.83,0,0,1,5-1.23,14.88,14.88,0,0,1,2.82,0,14.73,14.73,0,0,1,2.74.57l1.11.34a2.06,2.06,0,0,0,.76.08c.5,0,.91-.45,1.2-1.21Z" transform="translate(-183.84 -357.73)" fill="#fff"/>
  <path d="M289.28,361l.21,5.72-.41,0a7.12,7.12,0,0,0-.72-2.38,5,5,0,0,0-3.49-2.43,14.08,14.08,0,0,0-3-.15l-4.08.13-.17,10.42,1.07,0a10.28,10.28,0,0,0,2.44-.29,2.86,2.86,0,0,0,1.35-.79,3.31,3.31,0,0,0,.76-1.21,10.16,10.16,0,0,0,.43-2h.41l-.22,9.3-.41,0a8.85,8.85,0,0,0-.44-2.14,3.82,3.82,0,0,0-.84-1.36,2.93,2.93,0,0,0-1.37-.77,7.63,7.63,0,0,0-2.17-.19l-1,0-.06,4a32.78,32.78,0,0,0,.07,3.46,5.38,5.38,0,0,0,.45,1.8,3.51,3.51,0,0,0,1.81,1.77,7.52,7.52,0,0,0,3.26.47,10.68,10.68,0,0,0,3.59-.64,5.79,5.79,0,0,0,2.38-1.72,7,7,0,0,0,1.07-1.74,15.74,15.74,0,0,0,.77-2.54h.41l-.34,6.92s-16.36.26-21.27.9c-.1,0,0-.4,0-.4a6,6,0,0,0,1.67-.53,3.11,3.11,0,0,0,1.15-.77,3.15,3.15,0,0,0,.78-1.44,12.94,12.94,0,0,0,.24-2.63l.21-12.8a12.63,12.63,0,0,0-.16-2.62,2.79,2.79,0,0,0-.74-1.39,2.51,2.51,0,0,0-1.1-.69,6,6,0,0,0-1.66-.23v-.4Z" transform="translate(-183.84 -357.73)" fill="#fff"/>
  <path d="M296.93,364.07l.38,15.19a12.15,12.15,0,0,0,.26,2.66,3.16,3.16,0,0,0,.79,1.44,3.26,3.26,0,0,0,1.15.78,5.53,5.53,0,0,0,1.58.24v.39l-8.07-.08,0-.38a5.46,5.46,0,0,0,1.63-.34,2.75,2.75,0,0,0,1.1-.7,2.69,2.69,0,0,0,.72-1.39,12.41,12.41,0,0,0,.14-2.64l-.32-12.89A9.9,9.9,0,0,0,296,364a3.16,3.16,0,0,0-.79-1.45,3,3,0,0,0-1.12-.77,6,6,0,0,0-1.66-.33V361l6.82,0,14.82,18.58-.31-12.6a12.87,12.87,0,0,0-.27-2.67,3.25,3.25,0,0,0-.78-1.44,3.37,3.37,0,0,0-1.15-.77,5.91,5.91,0,0,0-1.64-.33v-.4l8.16.28v.4a3.45,3.45,0,0,0-2.73.92,2.69,2.69,0,0,0-.72,1.39,12.3,12.3,0,0,0-.14,2.62l.45,18.37-.79,0Z" transform="translate(-183.84 -357.73)" fill="#fff"/>
  <path d="M329.68,363.26c-.75-.05-1.55-.13-2.41-.17a13.58,13.58,0,0,0-4,.25,4.37,4.37,0,0,0-2.23,1.76,6.24,6.24,0,0,0-1.14,2.76l-.41-.09.24-6c13.31.78,23.74,2.22,23.74,2.22l.33,6.55h-.4a9.73,9.73,0,0,0-1.49-3.89,6.51,6.51,0,0,0-2.94-2.14,20.67,20.67,0,0,0-5.51-1l.05,17.87a12.7,12.7,0,0,0,.21,2.7,3.55,3.55,0,0,0,.75,1.53,3.47,3.47,0,0,0,1.11.86,6.16,6.16,0,0,0,1.62.47v.41l-11.18-1.27v-.41a5.72,5.72,0,0,0,1.63-.09,2.45,2.45,0,0,0,1.11-.62,2.58,2.58,0,0,0,.74-1.35,12.17,12.17,0,0,0,.2-2.66Z" transform="translate(-183.84 -357.73)" fill="#fff"/>
  <path d="M388.82,372.11l.4,6.41-.44-.09a10.34,10.34,0,0,0-.85-2.87,8,8,0,0,0-1.67-2.26,7.67,7.67,0,0,0-2.12-1.48,18.44,18.44,0,0,0-3.24-1.08l-4.35-1.07.13,11.5,1.14.28a11.44,11.44,0,0,0,2.61.41,2.14,2.14,0,0,0,1.41-.47,2.49,2.49,0,0,0,.78-1.11,11.1,11.1,0,0,0,.4-2.13l.43.13.05,10.25-.44-.11a12.69,12.69,0,0,0-.53-2.5,6.32,6.32,0,0,0-.94-1.76,4.88,4.88,0,0,0-1.49-1.27,9.43,9.43,0,0,0-2.33-.86l-1.08-.27.05,4.39c0,1.75.08,3,.18,3.86a7.38,7.38,0,0,0,.53,2.13,6.06,6.06,0,0,0,2,2.51,10.14,10.14,0,0,0,3.5,1.5,10.34,10.34,0,0,0,3.81.36,4.07,4.07,0,0,0,2.49-1.19,5,5,0,0,0,1.09-1.6,6.78,6.78,0,0,0,.55-1.85l.44.13-.75,7.78c-5.13-2.29-21.88-6.57-21.88-6.57v-.44a5.67,5.67,0,0,0,1.75.13,2.29,2.29,0,0,0,1.2-.5,2.4,2.4,0,0,0,.79-1.37,12.84,12.84,0,0,0,.18-2.85l-.16-13.52a15,15,0,0,0-.25-3,4.46,4.46,0,0,0-.82-1.76,4.61,4.61,0,0,0-1.2-1.1,8,8,0,0,0-1.78-.75v-.44S379.46,369.64,388.82,372.11Z" transform="translate(-183.84 -357.73)" fill="#fff"/>
  <path d="M418.34,411.81,406.42,406l0-.87a4.22,4.22,0,0,0,2.25.2,1.62,1.62,0,0,0,1-1.86,9.68,9.68,0,0,0-.69-2.52l-.38-1-2.14-5.65-8.15-3-.75,2.57-.37,1.15a9.24,9.24,0,0,0-.57,3.35,4.64,4.64,0,0,0,.42,1.58,5.24,5.24,0,0,0,.9,1.4,5.81,5.81,0,0,0,1.9,1.36l0,.48-8.3-3,0-.49a2.9,2.9,0,0,0,1.68.09,2.81,2.81,0,0,0,1.34-1,7.3,7.3,0,0,0,1-1.81c.31-.77.71-2,1.2-3.55L402,375.84l1.06.39,9.67,25.21c.73,1.91,1.5,4.08,1.91,4.93a9.4,9.4,0,0,0,1.29,2.06,5.34,5.34,0,0,0,1.06.95,5.66,5.66,0,0,0,1.19.71ZM406.05,393.3l-4.68-12.4-2.87,9.62Z" transform="translate(-183.84 -357.73)" fill="#fff"/>
  <path d="M425.39,424" transform="translate(-183.84 -357.73)" fill="#fff"/>
  <path d="M163.35,422.3" transform="translate(-183.84 -357.73)" fill="#fff"/>
  <path d="M344.53,395.41l.09-11.77.61.15a32.42,32.42,0,0,0,2.63,7.66q2.88,5.4,7.25,6.33a5.4,5.4,0,0,0,5-1.13,6.52,6.52,0,0,0,2-5.14,11.76,11.76,0,0,0-.43-3.07,11.49,11.49,0,0,0-1.17-2.85,12.54,12.54,0,0,0-2.16-2.6,53.44,53.44,0,0,0-4.24-3.5c-1.67-1.27-2.95-2.32-3.84-3.13a15.76,15.76,0,0,1-2.16-2.38,11.79,11.79,0,0,1-2.27-7,10.76,10.76,0,0,1,.9-4.38,8.26,8.26,0,0,1,2.47-3.25,7.67,7.67,0,0,1,6.64-1.38,11,11,0,0,1,2.31.76,24.59,24.59,0,0,1,2.82,1.67c.89.57,1.48.94,1.8,1.12a3.19,3.19,0,0,0,.85.33c.62.13,1-.26,1.24-1.19l.61.13.17,11.38-.6-.13c-.48-1.91-.89-3.38-1.23-4.42a20.72,20.72,0,0,0-1.22-2.93,13.59,13.59,0,0,0-2.85-3.91,7.7,7.7,0,0,0-3.59-1.83,4.68,4.68,0,0,0-4.68,1.18,5.19,5.19,0,0,0-1.12,1.84,6.79,6.79,0,0,0-.41,2.32q0,4.77,5.67,8.9l3.72,2.74a23,23,0,0,1,6.2,6.18,13.62,13.62,0,0,1,2.16,7.38,11.45,11.45,0,0,1-1,4.8,8.1,8.1,0,0,1-4.13,4.27,10.4,10.4,0,0,1-6.48.43,18.71,18.71,0,0,1-6.56-2.86c-1.09-.74-1.74-1.18-1.95-1.3a2.37,2.37,0,0,0-.72-.26,1.38,1.38,0,0,0-1.74,1Z" transform="translate(-183.84 -357.73)" fill="#fff"/>
  <path d="M248.38,391.46l1.19,2a331.18,331.18,0,0,1,92.87.72V392A331.07,331.07,0,0,0,248.38,391.46Z" transform="translate(-183.84 -357.73)" fill="#fff"/>
  <path d="M226.2,396.79a3,3,0,0,0,.89.52q6.3-1.33,12.71-2.41L238.72,393c-4.51.77-9,1.65-13.42,2.61A4.44,4.44,0,0,0,226.2,396.79Z" transform="translate(-183.84 -357.73)" fill="#fff"/>
  <path d="M210,400.81a7.75,7.75,0,0,0,1.19-1.79q-8.18,2.22-16.08,4.91a3.16,3.16,0,0,0,.68.8,3,3,0,0,0,1.64.55q5.66-1.87,11.44-3.51A6.28,6.28,0,0,0,210,400.81Z" transform="translate(-183.84 -357.73)" fill="#fff"/>
  <path d="M418.34,415.23a236.21,236.21,0,0,0-50.93-18.33,11.15,11.15,0,0,1-1.54,1.74,237.36,237.36,0,0,1,52.47,18.71Z" transform="translate(-183.84 -357.73)" fill="#fff"/>
</svg>
