<?xml version="1.0" encoding="UTF-8"?>

<svg xmlns:svg="http://www.w3.org/2000/svg" xmlns="http://www.w3.org/2000/svg" viewBox="0 0 210 197" version="1.1" id="svg4317">
<g>
<rect style="fill:#8c8c50;stroke:#000000;stroke-width:0.27502906" id="rect4242" width="209.45297" height="196.39531" x="0.28121394" y="0.27663279" />
<rect style="fill:#908470;fill-opacity:1;stroke:#000000;stroke-width:0.17940393;stroke-miterlimit:4;stroke-dasharray:none;stroke-opacity:1" id="rect8098" width="176.31334" height="169.11386" x="28.77389" y="20.917927" />
<text  style="font-style:normal;font-weight:normal;font-size:19.84336281px;line-height:1.25;font-family:sans-serif;letter-spacing:0px;word-spacing:0px;fill:#e3dbdb;fill-opacity:1;stroke:none;stroke-width:0.2325394" x="37.471561" y="39.823334" id="text4246"><tspan id="tspan4244" x="37.471561" y="39.823334" style="font-size:19.84336281px;fill:#e3dbdb;stroke-width:0.2325394">Databases</tspan></text>
<rect id="rect3713-81-3-0-7" width="126.35331" height="55.906033" x="38.891766" y="45.315559" style="fill:#909894;stroke:#000000;stroke-width:0.22154629" />
<rect id="rect3713-81-1-9-6-3-5-2" width="107.28658" height="13.062654" x="52.282333" y="67.381966" style="fill:#6b8e23;stroke:#000000;stroke-width:0.09868026" />
<rect id="rect3713-81-1-9-3-3-4-4-5" width="107.28658" height="13.062654" x="52.282333" y="85.054924" style="fill:#b8860b;stroke:#000000;stroke-width:0.09868026" />
<text  style="font-style:normal;font-weight:normal;font-size:9.30157566px;line-height:1.25;font-family:sans-serif;letter-spacing:0px;word-spacing:0px;fill:#000000;fill-opacity:1;stroke:none;stroke-width:0.2325394" x="65.442505" y="77.324059" id="text3803-5-4-9-6"><tspan id="tspan3801-2-3-8-4" x="65.442505" y="77.324059" style="stroke-width:0.2325394">Read connection</tspan></text>
<text  style="font-style:normal;font-weight:normal;font-size:12.40210152px;line-height:1.25;font-family:sans-serif;letter-spacing:0px;word-spacing:0px;fill:#000000;fill-opacity:1;stroke:none;stroke-width:0.2325394" x="57.38287" y="59.883278" id="text4075-0-8-4"><tspan id="tspan4073-0-4-9" x="57.38287" y="59.883278" style="font-size:12.40210152px;stroke-width:0.2325394">Database</tspan></text>
<text  style="font-style:normal;font-weight:normal;font-size:9.30157566px;line-height:1.25;font-family:sans-serif;letter-spacing:0px;word-spacing:0px;fill:#000000;fill-opacity:1;stroke:none;stroke-width:0.2325394" x="26.726862" y="13.875308" id="text6552"><tspan id="tspan6550" x="26.726862" y="13.875308" style="stroke-width:0.2325394">Global configuration</tspan></text>
<g transform="matrix(0.49316158,0,0,0.49316158,86.794776,55.815792)" id="g7597-83-5-1-6">
<circle r="10.557146" cy="36.545841" cx="-56.794773" id="path7514-9-1-4-5" style="fill:#767a3e;fill-opacity:1;stroke:#000000;stroke-width:0.2;stroke-miterlimit:4;stroke-dasharray:none;stroke-opacity:1" />
<circle r="8.9898701" cy="36.500637" cx="-56.749565" id="path7516-4-2-2-8" style="fill:#9c9858;fill-opacity:1;stroke:#000000;stroke-width:0.20699058;stroke-miterlimit:4;stroke-dasharray:none;stroke-opacity:1" />
<path  id="rect5514-1-4-9-9-3-5-4-9-7" d="m -62.054023,28.297425 2.921182,0.04525 -0.755478,2.986794 h -2.4679 c -1.146547,0.0173 -1.716295,-2.990449 0.302196,-3.032048 z" style="fill:#ccb470;stroke:#000000;stroke-width:0.08061358;stroke-miterlimit:4;stroke-dasharray:none" />
<path  id="rect5536-6-2-34-6-7-9-8-6-1" d="m -61.57486,30.42373 0.981124,0.01347 v 0.901416 h -1.775615 c 0.628149,-0.08477 0.751379,-0.475547 0.794491,-0.914883 z" style="fill:#d8c894;stroke:#000000;stroke-width:0.05829712;stroke-miterlimit:4;stroke-dasharray:none" />
<path  id="rect5511-8-4-80-9-4-45-50-6-4" d="m -62.170421,28.300836 h 10.402118 c 3.599698,-0.09101 -3.346128,12.373144 0.572671,15.700108 h -11.158636 c -2.654093,-1.184507 3.296845,-15.577895 0.183847,-15.700108 z" style="fill:#d8c894;stroke:#000000;stroke-width:0.08061358;stroke-miterlimit:4;stroke-dasharray:none" />
<rect y="32.015049" x="-60.132092" height="0.38087514" width="7.6936779" id="rect5576-50-90-1-2-9-7-1-6" style="fill:#90846c;stroke:none;stroke-width:0.09086263;stroke-miterlimit:4;stroke-dasharray:none" />
<rect y="33.50808" x="-60.345379" height="0.38087514" width="7.6936779" id="rect5576-7-9-2-9-23-9-6-5-5" style="fill:#90846c;stroke:none;stroke-width:0.09086263;stroke-miterlimit:4;stroke-dasharray:none" />
<rect y="35.001114" x="-60.771954" height="0.38087514" width="7.6936779" id="rect5576-9-1-6-0-7-8-0-8-9" style="fill:#90846c;stroke:none;stroke-width:0.09086263;stroke-miterlimit:4;stroke-dasharray:none" />
<rect y="36.484348" x="-61.046516" height="0.38087514" width="7.6936779" id="rect5576-5-7-6-8-6-7-1-98-64" style="fill:#90846c;stroke:none;stroke-width:0.09086263;stroke-miterlimit:4;stroke-dasharray:none" />
<rect y="37.908821" x="-61.351215" height="0.38087514" width="7.6936779" id="rect5576-8-2-95-0-1-0-3-4-9" style="fill:#90846c;stroke:none;stroke-width:0.09086263;stroke-miterlimit:4;stroke-dasharray:none" />
<rect y="39.401855" x="-61.564503" height="0.38087514" width="7.6936779" id="rect5576-0-6-8-7-1-13-8-8-3" style="fill:#90846c;stroke:none;stroke-width:0.09086263;stroke-miterlimit:4;stroke-dasharray:none" />
<rect y="40.894886" x="-61.77779" height="0.38087514" width="7.6936779" id="rect5576-06-6-77-0-51-1-9-0-22" style="fill:#90846c;stroke:none;stroke-width:0.09086263;stroke-miterlimit:4;stroke-dasharray:none" />
<rect y="30.482903" x="-59.953876" height="0.38087514" width="7.6936779" id="rect5576-4-6-99-4-2-40-9-8-09" style="fill:#90846c;stroke:none;stroke-width:0.09086263;stroke-miterlimit:4;stroke-dasharray:none" />
<rect y="42.38792" x="-61.564503" height="0.38087514" width="7.6936779" id="rect5576-6-3-7-6-9-4-2-7-3" style="fill:#90846c;stroke:none;stroke-width:0.09086263;stroke-miterlimit:4;stroke-dasharray:none" />
</g>
<path style="fill:#a8c0b4;fill-opacity:1;stroke:#000000;stroke-width:0.17577784;stroke-miterlimit:4;stroke-dasharray:none;stroke-opacity:1" d="m 47.221392,60.049554 v 29.751874 2.583828 h 2.113745 3.886871 l -0.02496,2.119187 4.151196,-3.3373 -4.071708,-3.410882 -0.02408,2.045167 H 49.335147 V 75.535229 h 4.367393 l -0.02496,2.118738 4.151187,-3.336852 -4.07125,-3.411328 -0.02408,2.045614 H 49.335156 V 60.049554 Z" id="rect5925-3-9" />
<circle style="fill:#a8c0b4;fill-opacity:1;stroke:#000000;stroke-width:0.15373625;stroke-miterlimit:4;stroke-dasharray:none;stroke-opacity:1" id="path7514-9" cx="48.856274" cy="55.282757" r="8.1150808" />
<circle style="fill:#c4c8b7;fill-opacity:1;stroke:#000000;stroke-width:0.15910979;stroke-miterlimit:4;stroke-dasharray:none;stroke-opacity:1" id="path7516-4" cx="48.891022" cy="55.248005" r="6.9103446" />
<path style="fill:#ccb470;stroke:#000000;stroke-width:0.06196615;stroke-miterlimit:4;stroke-dasharray:none" d="m 44.813586,48.942353 2.245457,0.03479 -0.580722,2.295893 h -1.897028 c -0.881329,0.0133 -1.319285,-2.298702 0.232293,-2.330678 z" id="rect5514-1-4-9-9-3-5" />
<path style="fill:#d8c894;stroke:#000000;stroke-width:0.0448119;stroke-miterlimit:4;stroke-dasharray:none" d="m 45.181909,50.576803 0.754172,0.01036 v 0.692903 h -1.364883 c 0.482847,-0.06516 0.577571,-0.365544 0.610711,-0.703254 z" id="rect5536-6-2-34-6-7-9" />
<path style="fill:#d8c894;stroke:#000000;stroke-width:0.06196615;stroke-miterlimit:4;stroke-dasharray:none" d="m 44.724111,48.944975 h 7.995914 c 2.767021,-0.06996 -2.572106,9.511003 0.440202,12.068379 h -8.577435 c -2.040151,-0.910508 2.534224,-11.974436 0.141319,-12.068379 z" id="rect5511-8-4-80-9-4-45" />
<rect style="fill:#90846c;stroke:none;stroke-width:0.06984441;stroke-miterlimit:4;stroke-dasharray:none" id="rect5576-50-90-1-2-9" width="5.9139862" height="0.29277158" x="46.290936" y="51.800022" />
<rect style="fill:#90846c;stroke:none;stroke-width:0.06984441;stroke-miterlimit:4;stroke-dasharray:none" id="rect5576-7-9-2-9-23-9" width="5.9139862" height="0.29277158" x="46.126987" y="52.947685" />
<rect style="fill:#90846c;stroke:none;stroke-width:0.06984441;stroke-miterlimit:4;stroke-dasharray:none" id="rect5576-9-1-6-0-7-8" width="5.9139862" height="0.29277158" x="45.799088" y="54.095352" />
<rect style="fill:#90846c;stroke:none;stroke-width:0.06984441;stroke-miterlimit:4;stroke-dasharray:none" id="rect5576-5-7-6-8-6-7" width="5.9139862" height="0.29277158" x="45.588039" y="55.235489" />
<rect style="fill:#90846c;stroke:none;stroke-width:0.06984441;stroke-miterlimit:4;stroke-dasharray:none" id="rect5576-8-2-95-0-1-0" width="5.9139862" height="0.29277158" x="45.353817" y="56.330452" />
<rect style="fill:#90846c;stroke:none;stroke-width:0.06984441;stroke-miterlimit:4;stroke-dasharray:none" id="rect5576-0-6-8-7-1-13" width="5.9139862" height="0.29277158" x="45.189873" y="57.478119" />
<rect style="fill:#90846c;stroke:none;stroke-width:0.06984441;stroke-miterlimit:4;stroke-dasharray:none" id="rect5576-06-6-77-0-51-1" width="5.9139862" height="0.29277158" x="45.025921" y="58.625782" />
<rect style="fill:#90846c;stroke:none;stroke-width:0.06984441;stroke-miterlimit:4;stroke-dasharray:none" id="rect5576-4-6-99-4-2-40" width="5.9139862" height="0.29277158" x="46.427929" y="50.622288" />
<rect style="fill:#90846c;stroke:none;stroke-width:0.06984441;stroke-miterlimit:4;stroke-dasharray:none" id="rect5576-6-3-7-6-9-4" width="5.9139862" height="0.29277158" x="45.189873" y="59.773449" />
<rect id="rect3713-81-3-0-7-7" width="126.35331" height="55.906033" x="55.863354" y="86.212158" style="fill:#909894;stroke:#000000;stroke-width:0.22154629" />
<rect id="rect3713-81-1-9-6-3-5-2-7" width="107.28658" height="13.062654" x="69.651855" y="107.83543" style="fill:#6b8e23;stroke:#000000;stroke-width:0.09868026" />
<rect id="rect3713-81-1-9-3-3-4-4-5-7" width="107.28658" height="13.062654" x="69.651855" y="125.5084" style="fill:#b8860b;stroke:#000000;stroke-width:0.09868026" />
<text  style="font-style:normal;font-weight:normal;font-size:9.30157566px;line-height:1.25;font-family:sans-serif;letter-spacing:0px;word-spacing:0px;fill:#000000;fill-opacity:1;stroke:none;stroke-width:0.2325394" x="82.812019" y="117.77749" id="text3803-5-4-9-6-2"><tspan id="tspan3801-2-3-8-4-4" x="82.812019" y="117.77749" style="stroke-width:0.2325394">Read connection</tspan></text>
<text  style="font-style:normal;font-weight:normal;font-size:12.40210152px;line-height:1.25;font-family:sans-serif;letter-spacing:0px;word-spacing:0px;fill:#000000;fill-opacity:1;stroke:none;stroke-width:0.2325394" x="76.147621" y="100.3367" id="text4075-0-8-4-4"><tspan id="tspan4073-0-4-9-7" x="76.147621" y="100.3367" style="font-size:12.40210152px;stroke-width:0.2325394">Database</tspan></text>
<g transform="matrix(0.49316158,0,0,0.49316158,104.68431,96.490892)" id="g7597-83-5-1-5">
<circle r="10.557146" cy="36.545841" cx="-56.794773" id="path7514-9-1-4-2" style="fill:#767a3e;fill-opacity:1;stroke:#000000;stroke-width:0.2;stroke-miterlimit:4;stroke-dasharray:none;stroke-opacity:1" />
<circle r="8.9898701" cy="36.500637" cx="-56.749565" id="path7516-4-2-2-9" style="fill:#9c9858;fill-opacity:1;stroke:#000000;stroke-width:0.20699058;stroke-miterlimit:4;stroke-dasharray:none;stroke-opacity:1" />
<path  id="rect5514-1-4-9-9-3-5-4-9-2" d="m -62.054023,28.297425 2.921182,0.04525 -0.755478,2.986794 h -2.4679 c -1.146547,0.0173 -1.716295,-2.990449 0.302196,-3.032048 z" style="fill:#ccb470;stroke:#000000;stroke-width:0.08061358;stroke-miterlimit:4;stroke-dasharray:none" />
<path  id="rect5536-6-2-34-6-7-9-8-6-3" d="m -61.57486,30.42373 0.981124,0.01347 v 0.901416 h -1.775615 c 0.628149,-0.08477 0.751379,-0.475547 0.794491,-0.914883 z" style="fill:#d8c894;stroke:#000000;stroke-width:0.05829712;stroke-miterlimit:4;stroke-dasharray:none" />
<path  id="rect5511-8-4-80-9-4-45-50-6-9" d="m -62.170421,28.300836 h 10.402118 c 3.599698,-0.09101 -3.346128,12.373144 0.572671,15.700108 h -11.158636 c -2.654093,-1.184507 3.296845,-15.577895 0.183847,-15.700108 z" style="fill:#d8c894;stroke:#000000;stroke-width:0.08061358;stroke-miterlimit:4;stroke-dasharray:none" />
<rect y="32.015049" x="-60.132092" height="0.38087514" width="7.6936779" id="rect5576-50-90-1-2-9-7-1-7" style="fill:#90846c;stroke:none;stroke-width:0.09086263;stroke-miterlimit:4;stroke-dasharray:none" />
<rect y="33.50808" x="-60.345379" height="0.38087514" width="7.6936779" id="rect5576-7-9-2-9-23-9-6-5-0" style="fill:#90846c;stroke:none;stroke-width:0.09086263;stroke-miterlimit:4;stroke-dasharray:none" />
<rect y="35.001114" x="-60.771954" height="0.38087514" width="7.6936779" id="rect5576-9-1-6-0-7-8-0-8-4" style="fill:#90846c;stroke:none;stroke-width:0.09086263;stroke-miterlimit:4;stroke-dasharray:none" />
<rect y="36.484348" x="-61.046516" height="0.38087514" width="7.6936779" id="rect5576-5-7-6-8-6-7-1-98-0" style="fill:#90846c;stroke:none;stroke-width:0.09086263;stroke-miterlimit:4;stroke-dasharray:none" />
<rect y="37.908821" x="-61.351215" height="0.38087514" width="7.6936779" id="rect5576-8-2-95-0-1-0-3-4-0" style="fill:#90846c;stroke:none;stroke-width:0.09086263;stroke-miterlimit:4;stroke-dasharray:none" />
<rect y="39.401855" x="-61.564503" height="0.38087514" width="7.6936779" id="rect5576-0-6-8-7-1-13-8-8-6" style="fill:#90846c;stroke:none;stroke-width:0.09086263;stroke-miterlimit:4;stroke-dasharray:none" />
<rect y="40.894886" x="-61.77779" height="0.38087514" width="7.6936779" id="rect5576-06-6-77-0-51-1-9-0-7" style="fill:#90846c;stroke:none;stroke-width:0.09086263;stroke-miterlimit:4;stroke-dasharray:none" />
<rect y="30.482903" x="-59.953876" height="0.38087514" width="7.6936779" id="rect5576-4-6-99-4-2-40-9-8-0" style="fill:#90846c;stroke:none;stroke-width:0.09086263;stroke-miterlimit:4;stroke-dasharray:none" />
<rect y="42.38792" x="-61.564503" height="0.38087514" width="7.6936779" id="rect5576-6-3-7-6-9-4-2-7-2" style="fill:#90846c;stroke:none;stroke-width:0.09086263;stroke-miterlimit:4;stroke-dasharray:none" />
</g>
<path style="fill:#a8c0b4;fill-opacity:1;stroke:#000000;stroke-width:0.17577784;stroke-miterlimit:4;stroke-dasharray:none;stroke-opacity:1" d="m 64.590907,100.50293 v 29.75186 2.58383 h 2.113746 3.886869 l -0.02496,2.11919 4.151195,-3.33731 -4.071709,-3.41087 -0.02408,2.04516 H 66.704659 V 115.9886 h 4.367393 l -0.02496,2.11874 4.151186,-3.33686 -4.071251,-3.41133 -0.02408,2.04561 H 66.70467 v -12.90183 z" id="rect5925-3-9-5" />
<circle style="fill:#a8c0b4;fill-opacity:1;stroke:#000000;stroke-width:0.15373625;stroke-miterlimit:4;stroke-dasharray:none;stroke-opacity:1" id="path7514-9-5" cx="65.553215" cy="96.12545" r="8.1150808" />
<circle style="fill:#c4c8b7;fill-opacity:1;stroke:#000000;stroke-width:0.15910979;stroke-miterlimit:4;stroke-dasharray:none;stroke-opacity:1" id="path7516-4-7" cx="65.587959" cy="96.090675" r="6.9103446" />
<path style="fill:#ccb470;stroke:#000000;stroke-width:0.06196615;stroke-miterlimit:4;stroke-dasharray:none" d="m 61.510527,89.785031 2.245459,0.03478 -0.580722,2.295894 h -1.897029 c -0.881329,0.0133 -1.319284,-2.298702 0.232292,-2.330679 z" id="rect5514-1-4-9-9-3-5-9" />
<path style="fill:#d8c894;stroke:#000000;stroke-width:0.0448119;stroke-miterlimit:4;stroke-dasharray:none" d="m 61.878851,91.419482 0.754172,0.01036 v 0.692902 h -1.364882 c 0.482846,-0.06516 0.577571,-0.365545 0.61071,-0.703255 z" id="rect5536-6-2-34-6-7-9-1" />
<path style="fill:#d8c894;stroke:#000000;stroke-width:0.06196615;stroke-miterlimit:4;stroke-dasharray:none" d="m 61.421055,89.787653 h 7.995912 c 2.767021,-0.06996 -2.572105,9.510973 0.440202,12.068337 h -8.577434 c -2.040152,-0.91051 2.534222,-11.974395 0.14132,-12.068337 z" id="rect5511-8-4-80-9-4-45-5" /> <rect style="fill:#90846c;stroke:none;stroke-width:0.06984441;stroke-miterlimit:4;stroke-dasharray:none" id="rect5576-50-90-1-2-9-1" width="5.9139862" height="0.29277158" x="62.987881" y="92.6427" />
<rect style="fill:#90846c;stroke:none;stroke-width:0.06984441;stroke-miterlimit:4;stroke-dasharray:none" id="rect5576-7-9-2-9-23-9-3" width="5.9139862" height="0.29277158" x="62.823933" y="93.790359" />
<rect style="fill:#90846c;stroke:none;stroke-width:0.06984441;stroke-miterlimit:4;stroke-dasharray:none" id="rect5576-9-1-6-0-7-8-3" width="5.9139862" height="0.29277158" x="62.496029" y="94.938026" />
<rect style="fill:#90846c;stroke:none;stroke-width:0.06984441;stroke-miterlimit:4;stroke-dasharray:none" id="rect5576-5-7-6-8-6-7-2" width="5.9139862" height="0.29277158" x="62.284981" y="96.078156" />
<rect style="fill:#90846c;stroke:none;stroke-width:0.06984441;stroke-miterlimit:4;stroke-dasharray:none" id="rect5576-8-2-95-0-1-0-7" width="5.9139862" height="0.29277158" x="62.050762" y="97.173141" />
<rect style="fill:#90846c;stroke:none;stroke-width:0.06984441;stroke-miterlimit:4;stroke-dasharray:none" id="rect5576-0-6-8-7-1-13-4" width="5.9139862" height="0.29277158" x="61.886814" y="98.320786" />
<rect style="fill:#90846c;stroke:none;stroke-width:0.06984441;stroke-miterlimit:4;stroke-dasharray:none" id="rect5576-06-6-77-0-51-1-3" width="5.9139862" height="0.29277158" x="61.722862" y="99.46846" />
<rect style="fill:#90846c;stroke:none;stroke-width:0.06984441;stroke-miterlimit:4;stroke-dasharray:none" id="rect5576-4-6-99-4-2-40-7" width="5.9139862" height="0.29277158" x="63.124866" y="91.464966" />
<rect style="fill:#90846c;stroke:none;stroke-width:0.06984441;stroke-miterlimit:4;stroke-dasharray:none" id="rect5576-6-3-7-6-9-4-8" width="5.9139862" height="0.29277158" x="61.886814" y="100.61613" />
<rect id="rect3713-81-3-0" width="126.35331" height="55.906033" x="72.309135" y="127.76061" style="fill:#909894;stroke:#000000;stroke-width:0.22154629" />
<rect id="rect3713-81-1-9-6-3" width="107.28658" height="13.062654" x="85.988426" y="148.70746" style="fill:#6b8e23;stroke:#000000;stroke-width:0.09868026" />
<rect id="rect3713-81-1-9-3-3-4" width="107.28658" height="13.062654" x="85.988426" y="166.3804" style="fill:#b8860b;stroke:#000000;stroke-width:0.09868026" />
<text  style="font-style:normal;font-weight:normal;font-size:9.30157566px;line-height:1.25;font-family:sans-serif;letter-spacing:0px;word-spacing:0px;fill:#000000;fill-opacity:1;stroke:none;stroke-width:0.2325394" x="99.148605" y="158.64952" id="text3803-5-4"><tspan id="tspan3801-2-3" x="99.148605" y="158.64952" style="stroke-width:0.2325394">Read connection</tspan></text>
<text  style="font-style:normal;font-weight:normal;font-size:9.30157566px;line-height:1.25;font-family:sans-serif;letter-spacing:0px;word-spacing:0px;fill:#000000;fill-opacity:1;stroke:none;stroke-width:0.2325394" x="98.913704" y="176.78761" id="text3813-6-3"><tspan id="tspan3811-8-6" x="98.913704" y="176.78761" style="stroke-width:0.2325394">Write connection</tspan></text>
<g id="g3862-6-1" transform="matrix(0.20003704,0,0,0.23304677,207.11476,133.69498)">
<path id="path3819-1-6-7" transform="scale(0.26458333)" d="m -432.26172,284.34961 v 125.54687 a 61.114226,17.172593 0 0 0 -0.084,0.46875 61.114226,17.172593 0 0 0 61.11523,17.17383 61.114226,17.172593 0 0 0 61.08008,-16.99218 h 0.0293 v -0.16016 a 61.114226,17.172593 0 0 0 0.004,-0.0215 61.114226,17.172593 0 0 0 -0.004,-0.0312 V 284.34961 Z" style="fill:#ffdd55;stroke:#000000;stroke-width:0.99999994" />
<ellipse ry="4.543582" rx="16.169806" cy="75.171661" cx="-98.22155" id="path3819-0-9" style="fill:#ffdd55;stroke:#000000;stroke-width:0.26458332" />
<path id="path3857-6-5" d="m -131.86795,76.857711 -0.39909,28.957209 20.75257,-14.319492 z" style="fill:#000000;stroke:#000000;stroke-width:0.35278076px;stroke-linecap:butt;stroke-linejoin:miter;stroke-opacity:1" />
</g>
<g id="g3862-4-4-4" transform="matrix(0.20003704,0,0,0.23304677,207.05404,151.15149)">
<path id="path3819-1-2-0-1" transform="scale(0.26458333)" d="m -432.26172,284.34961 v 125.54687 a 61.114226,17.172593 0 0 0 -0.084,0.46875 61.114226,17.172593 0 0 0 61.11523,17.17383 61.114226,17.172593 0 0 0 61.08008,-16.99218 h 0.0293 v -0.16016 a 61.114226,17.172593 0 0 0 0.004,-0.0215 61.114226,17.172593 0 0 0 -0.004,-0.0312 V 284.34961 Z" style="fill:#ffdd55;stroke:#000000;stroke-width:0.99999994" />
<ellipse ry="4.543582" rx="16.169806" cy="75.171661" cx="-98.22155" id="path3819-3-9-1" style="fill:#ffdd55;stroke:#000000;stroke-width:0.26458332" />
<path id="path3857-8-4-5" d="m -131.86795,76.857711 -0.39909,28.957209 20.75257,-14.319492 z" style="fill:#000000;stroke:#000000;stroke-width:0.35278076px;stroke-linecap:butt;stroke-linejoin:miter;stroke-opacity:1" />
</g>
<text  style="font-style:normal;font-weight:normal;font-size:12.40210152px;line-height:1.25;font-family:sans-serif;letter-spacing:0px;word-spacing:0px;fill:#000000;fill-opacity:1;stroke:none;stroke-width:0.2325394" x="92.4842" y="141.20877" id="text4075-0"><tspan id="tspan4073-0" x="92.4842" y="141.20877" style="font-size:12.40210152px;stroke-width:0.2325394">Database</tspan></text>
<g transform="matrix(0.49316158,0,0,0.49316158,121.66727,137.32148)" id="g7597-83-5-1">
<circle r="10.557146" cy="36.545841" cx="-56.794773" id="path7514-9-1-4" style="fill:#767a3e;fill-opacity:1;stroke:#000000;stroke-width:0.2;stroke-miterlimit:4;stroke-dasharray:none;stroke-opacity:1" />
<circle r="8.9898701" cy="36.500637" cx="-56.749565" id="path7516-4-2-2" style="fill:#9c9858;fill-opacity:1;stroke:#000000;stroke-width:0.20699058;stroke-miterlimit:4;stroke-dasharray:none;stroke-opacity:1" />
<path  id="rect5514-1-4-9-9-3-5-4-9" d="m -62.054023,28.297425 2.921182,0.04525 -0.755478,2.986794 h -2.4679 c -1.146547,0.0173 -1.716295,-2.990449 0.302196,-3.032048 z" style="fill:#ccb470;stroke:#000000;stroke-width:0.08061358;stroke-miterlimit:4;stroke-dasharray:none" />
<path  id="rect5536-6-2-34-6-7-9-8-6" d="m -61.57486,30.42373 0.981124,0.01347 v 0.901416 h -1.775615 c 0.628149,-0.08477 0.751379,-0.475547 0.794491,-0.914883 z" style="fill:#d8c894;stroke:#000000;stroke-width:0.05829712;stroke-miterlimit:4;stroke-dasharray:none" />
<path  id="rect5511-8-4-80-9-4-45-50-6" d="m -62.170421,28.300836 h 10.402118 c 3.599698,-0.09101 -3.346128,12.373144 0.572671,15.700108 h -11.158636 c -2.654093,-1.184507 3.296845,-15.577895 0.183847,-15.700108 z" style="fill:#d8c894;stroke:#000000;stroke-width:0.08061358;stroke-miterlimit:4;stroke-dasharray:none" />
<rect y="32.015049" x="-60.132092" height="0.38087514" width="7.6936779" id="rect5576-50-90-1-2-9-7-1" style="fill:#90846c;stroke:none;stroke-width:0.09086263;stroke-miterlimit:4;stroke-dasharray:none" />
<rect y="33.50808" x="-60.345379" height="0.38087514" width="7.6936779" id="rect5576-7-9-2-9-23-9-6-5" style="fill:#90846c;stroke:none;stroke-width:0.09086263;stroke-miterlimit:4;stroke-dasharray:none" />
<rect y="35.001114" x="-60.771954" height="0.38087514" width="7.6936779" id="rect5576-9-1-6-0-7-8-0-8" style="fill:#90846c;stroke:none;stroke-width:0.09086263;stroke-miterlimit:4;stroke-dasharray:none" />
<rect y="36.484348" x="-61.046516" height="0.38087514" width="7.6936779" id="rect5576-5-7-6-8-6-7-1-98" style="fill:#90846c;stroke:none;stroke-width:0.09086263;stroke-miterlimit:4;stroke-dasharray:none" />
<rect y="37.908821" x="-61.351215" height="0.38087514" width="7.6936779" id="rect5576-8-2-95-0-1-0-3-4" style="fill:#90846c;stroke:none;stroke-width:0.09086263;stroke-miterlimit:4;stroke-dasharray:none" />
<rect y="39.401855" x="-61.564503" height="0.38087514" width="7.6936779" id="rect5576-0-6-8-7-1-13-8-8" style="fill:#90846c;stroke:none;stroke-width:0.09086263;stroke-miterlimit:4;stroke-dasharray:none" />
<rect y="40.894886" x="-61.77779" height="0.38087514" width="7.6936779" id="rect5576-06-6-77-0-51-1-9-0" style="fill:#90846c;stroke:none;stroke-width:0.09086263;stroke-miterlimit:4;stroke-dasharray:none" />
<rect y="30.482903" x="-59.953876" height="0.38087514" width="7.6936779" id="rect5576-4-6-99-4-2-40-9-8" style="fill:#90846c;stroke:none;stroke-width:0.09086263;stroke-miterlimit:4;stroke-dasharray:none" />
<rect y="42.38792" x="-61.564503" height="0.38087514" width="7.6936779" id="rect5576-6-3-7-6-9-4-2-7" style="fill:#90846c;stroke:none;stroke-width:0.09086263;stroke-miterlimit:4;stroke-dasharray:none" />
</g>
<g transform="matrix(0.49316158,0,0,0.49316158,121.77547,154.72746)" id="g7597-83-5-1-4">
<circle r="10.557146" cy="36.545841" cx="-56.794773" id="path7514-9-1-4-24" style="fill:#767a3e;fill-opacity:1;stroke:#000000;stroke-width:0.2;stroke-miterlimit:4;stroke-dasharray:none;stroke-opacity:1" />
<circle r="8.9898701" cy="36.500637" cx="-56.749565" id="path7516-4-2-2-93" style="fill:#9c9858;fill-opacity:1;stroke:#000000;stroke-width:0.20699058;stroke-miterlimit:4;stroke-dasharray:none;stroke-opacity:1" />
<path  id="rect5514-1-4-9-9-3-5-4-9-4" d="m -62.054023,28.297425 2.921182,0.04525 -0.755478,2.986794 h -2.4679 c -1.146547,0.0173 -1.716295,-2.990449 0.302196,-3.032048 z" style="fill:#ccb470;stroke:#000000;stroke-width:0.08061358;stroke-miterlimit:4;stroke-dasharray:none" />
<path  id="rect5536-6-2-34-6-7-9-8-6-6" d="m -61.57486,30.42373 0.981124,0.01347 v 0.901416 h -1.775615 c 0.628149,-0.08477 0.751379,-0.475547 0.794491,-0.914883 z" style="fill:#d8c894;stroke:#000000;stroke-width:0.05829712;stroke-miterlimit:4;stroke-dasharray:none" />
<path  id="rect5511-8-4-80-9-4-45-50-6-0" d="m -62.170421,28.300836 h 10.402118 c 3.599698,-0.09101 -3.346128,12.373144 0.572671,15.700108 h -11.158636 c -2.654093,-1.184507 3.296845,-15.577895 0.183847,-15.700108 z" style="fill:#d8c894;stroke:#000000;stroke-width:0.08061358;stroke-miterlimit:4;stroke-dasharray:none" />
<rect y="32.015049" x="-60.132092" height="0.38087514" width="7.6936779" id="rect5576-50-90-1-2-9-7-1-3" style="fill:#90846c;stroke:none;stroke-width:0.09086263;stroke-miterlimit:4;stroke-dasharray:none" />
<rect y="33.50808" x="-60.345379" height="0.38087514" width="7.6936779" id="rect5576-7-9-2-9-23-9-6-5-9" style="fill:#90846c;stroke:none;stroke-width:0.09086263;stroke-miterlimit:4;stroke-dasharray:none" />
<rect y="35.001114" x="-60.771954" height="0.38087514" width="7.6936779" id="rect5576-9-1-6-0-7-8-0-8-2" style="fill:#90846c;stroke:none;stroke-width:0.09086263;stroke-miterlimit:4;stroke-dasharray:none" />
<rect y="36.484348" x="-61.046516" height="0.38087514" width="7.6936779" id="rect5576-5-7-6-8-6-7-1-98-6" style="fill:#90846c;stroke:none;stroke-width:0.09086263;stroke-miterlimit:4;stroke-dasharray:none" />
<rect y="37.908821" x="-61.351215" height="0.38087514" width="7.6936779" id="rect5576-8-2-95-0-1-0-3-4-7" style="fill:#90846c;stroke:none;stroke-width:0.09086263;stroke-miterlimit:4;stroke-dasharray:none" />
<rect y="39.401855" x="-61.564503" height="0.38087514" width="7.6936779" id="rect5576-0-6-8-7-1-13-8-8-4" style="fill:#90846c;stroke:none;stroke-width:0.09086263;stroke-miterlimit:4;stroke-dasharray:none" />
<rect y="40.894886" x="-61.77779" height="0.38087514" width="7.6936779" id="rect5576-06-6-77-0-51-1-9-0-2" style="fill:#90846c;stroke:none;stroke-width:0.09086263;stroke-miterlimit:4;stroke-dasharray:none" />
<rect y="30.482903" x="-59.953876" height="0.38087514" width="7.6936779" id="rect5576-4-6-99-4-2-40-9-8-1" style="fill:#90846c;stroke:none;stroke-width:0.09086263;stroke-miterlimit:4;stroke-dasharray:none" />
<rect y="42.38792" x="-61.564503" height="0.38087514" width="7.6936779" id="rect5576-6-3-7-6-9-4-2-7-5" style="fill:#90846c;stroke:none;stroke-width:0.09086263;stroke-miterlimit:4;stroke-dasharray:none" />
</g>
<path style="fill:#a8c0b4;fill-opacity:1;stroke:#000000;stroke-width:0.17577782;stroke-miterlimit:4;stroke-dasharray:none;stroke-opacity:1" d="m 80.927489,141.37488 v 29.75188 2.58382 h 2.113745 3.886862 l -0.02498,2.1192 4.151193,-3.3373 -4.071711,-3.41089 -0.02407,2.04517 h -3.91729 v -14.2662 h 4.367381 l -0.02498,2.11874 4.151192,-3.33685 -4.071256,-3.41134 -0.02407,2.04563 h -4.398263 v -12.90186 z" id="rect5925" />
<circle style="fill:#a8c0b4;fill-opacity:1;stroke:#000000;stroke-width:0.15373625;stroke-miterlimit:4;stroke-dasharray:none;stroke-opacity:1" id="path7514-9-6" cx="82.354477" cy="137.66234" r="8.1150808" />
<circle style="fill:#c4c8b7;fill-opacity:1;stroke:#000000;stroke-width:0.15910979;stroke-miterlimit:4;stroke-dasharray:none;stroke-opacity:1" id="path7516-4-0" cx="82.389229" cy="137.62758" r="6.9103446" />
<path style="fill:#ccb470;stroke:#000000;stroke-width:0.06196615;stroke-miterlimit:4;stroke-dasharray:none" d="m 78.311793,131.32179 2.245457,0.0348 -0.580721,2.29589 h -1.897028 c -0.881329,0.0133 -1.319284,-2.29871 0.232292,-2.33068 z" id="rect5514-1-4-9-9-3-5-0" />
<path style="fill:#d8c894;stroke:#000000;stroke-width:0.0448119;stroke-miterlimit:4;stroke-dasharray:none" d="m 78.680117,132.95624 0.754171,0.0103 v 0.69291 h -1.364882 c 0.482847,-0.0651 0.577572,-0.36555 0.610711,-0.70326 z" id="rect5536-6-2-34-6-7-9-4" />
<path style="fill:#d8c894;stroke:#000000;stroke-width:0.06196615;stroke-miterlimit:4;stroke-dasharray:none" d="m 78.222321,131.32442 h 7.995912 c 2.76702,-0.07 -2.572105,9.511 0.440202,12.06837 H 78.081 c -2.040151,-0.91051 2.534223,-11.97444 0.141321,-12.06837 z" id="rect5511-8-4-80-9-4-45-1" />
<rect style="fill:#90846c;stroke:none;stroke-width:0.06984441;stroke-miterlimit:4;stroke-dasharray:none" id="rect5576-50-90-1-2-9-3" width="5.9139862" height="0.29277158" x="79.789146" y="134.1796" />
<rect style="fill:#90846c;stroke:none;stroke-width:0.06984441;stroke-miterlimit:4;stroke-dasharray:none" id="rect5576-7-9-2-9-23-9-1" width="5.9139862" height="0.29277158" x="79.625198" y="135.32726" />
<rect style="fill:#90846c;stroke:none;stroke-width:0.06984441;stroke-miterlimit:4;stroke-dasharray:none" id="rect5576-9-1-6-0-7-8-8" width="5.9139862" height="0.29277158" x="79.297295" y="136.47493" />
<rect style="fill:#90846c;stroke:none;stroke-width:0.06984441;stroke-miterlimit:4;stroke-dasharray:none" id="rect5576-5-7-6-8-6-7-6" width="5.9139862" height="0.29277158" x="79.086243" y="137.61507" />
<rect style="fill:#90846c;stroke:none;stroke-width:0.06984441;stroke-miterlimit:4;stroke-dasharray:none" id="rect5576-8-2-95-0-1-0-1" width="5.9139862" height="0.29277158" x="78.852028" y="138.71004" />
<rect style="fill:#90846c;stroke:none;stroke-width:0.06984441;stroke-miterlimit:4;stroke-dasharray:none" id="rect5576-0-6-8-7-1-13-6" width="5.9139862" height="0.29277158" x="78.688072" y="139.85771" />
<rect style="fill:#90846c;stroke:none;stroke-width:0.06984441;stroke-miterlimit:4;stroke-dasharray:none" id="rect5576-06-6-77-0-51-1-30" width="5.9139862" height="0.29277158" x="78.524124" y="141.00536" />
<rect style="fill:#90846c;stroke:none;stroke-width:0.06984441;stroke-miterlimit:4;stroke-dasharray:none" id="rect5576-4-6-99-4-2-40-8" width="5.9139862" height="0.29277158" x="79.92614" y="133.00188" />
<rect style="fill:#90846c;stroke:none;stroke-width:0.06984441;stroke-miterlimit:4;stroke-dasharray:none" id="rect5576-6-3-7-6-9-4-1" width="5.9139862" height="0.29277158" x="78.688072" y="142.15303" />
<path style="fill:#d0d094;fill-opacity:1;stroke:#000000;stroke-width:0.17577784;stroke-miterlimit:4;stroke-dasharray:none;stroke-opacity:1" d="m 14.080129,25.866429 v 109.745391 2.58382 h 2.113747 57.836002 l -0.02497,2.1192 4.151191,-3.3373 -4.071712,-3.41089 -0.02407,2.04517 H 16.193876 V 97.161546 h 41.108605 l -0.02498,2.118728 4.151191,-3.336826 -4.071256,-3.411332 -0.02407,2.045624 H 16.193876 V 57.117545 h 22.959632 l -0.02498,2.118744 4.15119,-3.33685 -4.071256,-3.411335 -0.02407,2.04562 H 16.193876 V 25.866429 Z" id="rect5925-3-9-5-2" />
<g id="g8096" transform="matrix(0.87888911,0,0,0.87888911,30.846129,19.999804)">
<circle r="14.263808" cy="-2.7911499" cx="-17.923622" id="path7514-0" style="fill:#d0d094;fill-opacity:1;stroke:#000000;stroke-width:0.27022094;stroke-miterlimit:4;stroke-dasharray:none;stroke-opacity:1" />
<circle r="12.146255" cy="-2.8522253" cx="-17.862541" id="path7516-5" style="fill:#b0a464;fill-opacity:1;stroke:#000000;stroke-width:0.27966592;stroke-miterlimit:4;stroke-dasharray:none;stroke-opacity:1" />
<path  id="rect5514-1-4-9-9-3-0" d="m -25.029419,-13.935623 3.946823,0.06114 -1.02073,4.0354707 h -3.334391 c -1.549105,0.023374 -2.318894,-4.0404097 0.408298,-4.0966137 z" style="fill:#ccb470;stroke:#000000;stroke-width:0.10891739;stroke-miterlimit:4;stroke-dasharray:none" />
<path  id="rect5536-6-2-34-6-7-8" d="m -24.38202,-11.062762 1.325602,0.0182 v 1.2179072 h -2.399042 c 0.848695,-0.1145331 1.015192,-0.6425142 1.07344,-1.2361022 z" style="fill:#d8c894;stroke:#000000;stroke-width:0.0787655;stroke-miterlimit:4;stroke-dasharray:none" />
<path  id="rect5511-8-4-80-9-4-4" d="m -25.186685,-13.931014 h 14.05435 c 4.8635682,-0.122964 -4.520969,16.7174115 0.773738,21.2124878 h -15.076484 c -3.585958,-1.6003928 4.454382,-21.0473658 0.248396,-21.2124878 z" style="fill:#d8c894;stroke:#000000;stroke-width:0.10891739;stroke-miterlimit:4;stroke-dasharray:none" />
<rect y="-8.9127245" x="-22.432688" height="0.51460212" width="10.394963" id="rect5576-50-90-1-2-8" style="fill:#90846c;stroke:none;stroke-width:0.12276492;stroke-miterlimit:4;stroke-dasharray:none" />
<rect y="-6.8954835" x="-22.720861" height="0.51460212" width="10.394963" id="rect5576-7-9-2-9-23-7" style="fill:#90846c;stroke:none;stroke-width:0.12276492;stroke-miterlimit:4;stroke-dasharray:none" />
<rect y="-4.8782382" x="-23.297209" height="0.51460212" width="10.394963" id="rect5576-9-1-6-0-7-6" style="fill:#90846c;stroke:none;stroke-width:0.12276492;stroke-miterlimit:4;stroke-dasharray:none" />
<rect y="-2.8742332" x="-23.668173" height="0.51460212" width="10.394963" id="rect5576-5-7-6-8-6-8" style="fill:#90846c;stroke:none;stroke-width:0.12276492;stroke-miterlimit:4;stroke-dasharray:none" />
<rect y="-0.94962144" x="-24.079853" height="0.51460212" width="10.394963" id="rect5576-8-2-95-0-1-4" style="fill:#90846c;stroke:none;stroke-width:0.12276492;stroke-miterlimit:4;stroke-dasharray:none" />
<rect y="1.0676242" x="-24.368027" height="0.51460212" width="10.394963" id="rect5576-0-6-8-7-1-1" style="fill:#90846c;stroke:none;stroke-width:0.12276492;stroke-miterlimit:4;stroke-dasharray:none" />
<rect y="3.0848646" x="-24.656199" height="0.51460212" width="10.394963" id="rect5576-06-6-77-0-51-4" style="fill:#90846c;stroke:none;stroke-width:0.12276492;stroke-miterlimit:4;stroke-dasharray:none" />
<rect y="-10.982814" x="-22.191902" height="0.51460212" width="10.394963" id="rect5576-4-6-99-4-2-4" style="fill:#90846c;stroke:none;stroke-width:0.12276492;stroke-miterlimit:4;stroke-dasharray:none" />
<rect y="5.1021104" x="-24.368027" height="0.51460212" width="10.394963" id="rect5576-6-3-7-6-9-8" style="fill:#90846c;stroke:none;stroke-width:0.12276492;stroke-miterlimit:4;stroke-dasharray:none" />
</g>
</g>
</svg>
