<svg id="Layer_1" data-name="Layer 1" xmlns="http://www.w3.org/2000/svg" viewBox="0 0 421.25 420.87">
  <title>LooselyCoupled</title>
  <circle cx="210.43" cy="210.43" r="210.43" fill="dimgray"/>
  <path d="M449.72,217.09a14.48,14.48,0,0,0-14.48-14.48h-66.9a26.37,26.37,0,1,1,0,52.74,26.37,26.37,0,1,0,0,52.74,26.37,26.37,0,0,1,0,52.74,26.37,26.37,0,1,0,0,52.74,26.37,26.37,0,0,1,0,52.74,26.37,26.37,0,1,0,0,52.74h66.9a14.48,14.48,0,0,0,14.48-14.48V387.76h89.95a212.59,212.59,0,0,0-1.54-63.94l-88.41,0Z" transform="translate(-120.13 -150.04)" fill="#fff"/>
  <path d="M298.21,255.35a26.37,26.37,0,1,0,0-52.74h-67.3a14.48,14.48,0,0,0-14.48,14.48V323.83H123.32a212.2,212.2,0,0,0-1.43,63.93h94.54V504.57a14.48,14.48,0,0,0,14.48,14.48h67.3a26.37,26.37,0,0,1,0-52.74,26.37,26.37,0,0,0,0-52.74,26.37,26.37,0,0,1,0-52.74,26.37,26.37,0,0,0,0-52.74,26.37,26.37,0,0,1,0-52.74Z" transform="translate(-120.13 -150.04)" fill="#231f20"/>
</svg>
