<?xml version="1.0" encoding="UTF-8"?>

<svg xmlns:svg="http://www.w3.org/2000/svg" xmlns="http://www.w3.org/2000/svg" viewBox="0 0 210 198" version="1.1">
<g>
<rect style="fill:#c8b470;fill-opacity:1;stroke:#000000;stroke-width:0.1547662;stroke-miterlimit:4;stroke-dasharray:none;stroke-opacity:1" id="rect9517" width="209.7332" height="197.74512" x="0.11129616" y="0.13029964" />
<rect style="fill:#90acac;stroke:#000000;stroke-width:0.24491322" id="rect4242" width="186.85345" height="174.57571" x="19.272146" y="17.931543" />
<text style="font-style:normal;font-weight:normal;font-size:7.19282341px;line-height:1.25;font-family:sans-serif;letter-spacing:0px;word-spacing:0px;fill:#000000;fill-opacity:1;stroke:none;stroke-width:0.17982058" x="21.119661" y="7.7348876" id="text6552">
<tspan id="tspan6550" x="21.119661" y="7.7348876" style="stroke-width:0.17982058">Global configuration</tspan>
</text>
<rect style="fill:#908470;fill-opacity:1;stroke:#000000;stroke-width:0.14240505;stroke-miterlimit:4;stroke-dasharray:none;stroke-opacity:1" id="rect8098-3-1-1" width="156.72942" height="119.86733" x="29.26343" y="41.044777" />
<text style="font-style:normal;font-weight:normal;font-size:12.27599239px;line-height:1.25;font-family:sans-serif;letter-spacing:0px;word-spacing:0px;fill:#e3dbdb;fill-opacity:1;stroke:none;stroke-width:0.17982058" x="49.76543" y="55.262794" id="text4246-6-5-1">
<tspan id="tspan4244-4-4-5" x="49.76543" y="55.262794" style="font-size:12.27599239px;fill:#e3dbdb;stroke-width:0.17982058">ShardSet</tspan>
</text>
<circle style="fill:#987c84;fill-opacity:1;stroke:#000000;stroke-width:0.15941049;stroke-miterlimit:4;stroke-dasharray:none;stroke-opacity:1" id="path7514-0-8-5-6" cx="39.639832" cy="51.117809" r="8.4145985" />
<circle style="fill:#a090b0;fill-opacity:1;stroke:#000000;stroke-width:0.16498233;stroke-miterlimit:4;stroke-dasharray:none;stroke-opacity:1" id="path7516-5-8-7-6" cx="39.675865" cy="51.081783" r="7.1653981" />
<path style="fill:#ccb470;stroke:#000000;stroke-width:0.06425327;stroke-miterlimit:4;stroke-dasharray:none" d="m 35.447936,44.543393 2.328336,0.03607 -0.602156,2.380632 H 35.20707 c -0.913858,0.01379 -1.367977,-2.383546 0.240866,-2.416702 z" id="rect5514-1-4-9-9-3-0-7-3-1" />
<path style="fill:#d8c894;stroke:#000000;stroke-width:0.04646585;stroke-miterlimit:4;stroke-dasharray:none" d="m 35.829854,46.238169 0.782008,0.01074 v 0.718475 h -1.415259 c 0.500669,-0.06756 0.598889,-0.379037 0.633251,-0.72921 z" id="rect5536-6-2-34-6-7-8-2-9-3" />
<path style="fill:#d8c894;stroke:#000000;stroke-width:0.06425327;stroke-miterlimit:4;stroke-dasharray:none" d="m 35.35516,44.546111 h 8.291035 c 2.869148,-0.07254 -2.66704,9.862046 0.456448,12.513811 h -8.894018 c -2.115452,-0.944114 2.627759,-12.4164 0.146535,-12.513811 z" id="rect5511-8-4-80-9-4-4-8-8-3" />
<rect style="fill:#90846c;stroke:none;stroke-width:0.07242227;stroke-miterlimit:4;stroke-dasharray:none" id="rect5576-50-90-1-2-8-9-5-3" width="6.1322646" height="0.30357745" x="36.979816" y="47.506535" />
<rect style="fill:#90846c;stroke:none;stroke-width:0.07242227;stroke-miterlimit:4;stroke-dasharray:none" id="rect5576-7-9-2-9-23-7-2-3-0" width="6.1322646" height="0.30357745" x="36.809818" y="48.69656" />
<rect style="fill:#90846c;stroke:none;stroke-width:0.07242227;stroke-miterlimit:4;stroke-dasharray:none" id="rect5576-9-1-6-0-7-6-0-2-6" width="6.1322646" height="0.30357745" x="36.46981" y="49.886581" />
<rect style="fill:#90846c;stroke:none;stroke-width:0.07242227;stroke-miterlimit:4;stroke-dasharray:none" id="rect5576-5-7-6-8-6-8-4-0-6" width="6.1322646" height="0.30357745" x="36.250973" y="51.068798" />
<rect style="fill:#90846c;stroke:none;stroke-width:0.07242227;stroke-miterlimit:4;stroke-dasharray:none" id="rect5576-8-2-95-0-1-4-1-6-7" width="6.1322646" height="0.30357745" x="36.00811" y="52.204178" />
<rect style="fill:#90846c;stroke:none;stroke-width:0.07242227;stroke-miterlimit:4;stroke-dasharray:none" id="rect5576-0-6-8-7-1-1-4-2-5" width="6.1322646" height="0.30357745" x="35.838108" y="53.394199" />
<rect style="fill:#90846c;stroke:none;stroke-width:0.07242227;stroke-miterlimit:4;stroke-dasharray:none" id="rect5576-06-6-77-0-51-4-0-6-0" width="6.1322646" height="0.30357745" x="35.668106" y="54.584229" />
<rect style="fill:#90846c;stroke:none;stroke-width:0.07242227;stroke-miterlimit:4;stroke-dasharray:none" id="rect5576-4-6-99-4-2-4-5-1-1" width="6.1322646" height="0.30357745" x="37.121864" y="46.285336" />
<rect style="fill:#90846c;stroke:none;stroke-width:0.07242227;stroke-miterlimit:4;stroke-dasharray:none" id="rect5576-6-3-7-6-9-8-2-3-6" width="6.1322646" height="0.30357745" x="35.838108" y="55.77425" />
<rect style="fill:#908470;fill-opacity:1;stroke:#000000;stroke-width:0.14240505;stroke-miterlimit:4;stroke-dasharray:none;stroke-opacity:1" id="rect8098-3-1-7" width="156.72942" height="119.86733" x="37.508945" y="54.379707" />
<text style="font-style:normal;font-weight:normal;font-size:12.27599239px;line-height:1.25;font-family:sans-serif;letter-spacing:0px;word-spacing:0px;fill:#e3dbdb;fill-opacity:1;stroke:none;stroke-width:0.17982058" x="58.010948" y="68.597717" id="text4246-6-5-2">
<tspan id="tspan4244-4-4-8" x="58.010948" y="68.597717" style="font-size:12.27599239px;fill:#e3dbdb;stroke-width:0.17982058">ShardSet</tspan>
</text>
<circle style="fill:#987c84;fill-opacity:1;stroke:#000000;stroke-width:0.15941049;stroke-miterlimit:4;stroke-dasharray:none;stroke-opacity:1" id="path7514-0-8-5-4" cx="47.885349" cy="64.452744" r="8.4145985" />
<circle style="fill:#a090b0;fill-opacity:1;stroke:#000000;stroke-width:0.16498233;stroke-miterlimit:4;stroke-dasharray:none;stroke-opacity:1" id="path7516-5-8-7-3" cx="47.921379" cy="64.41671" r="7.1653981" />
<path style="fill:#ccb470;stroke:#000000;stroke-width:0.06425327;stroke-miterlimit:4;stroke-dasharray:none" d="m 43.693451,57.878323 2.328336,0.03607 -0.602156,2.380632 h -1.967046 c -0.913858,0.01379 -1.367977,-2.383546 0.240866,-2.416702 z" id="rect5514-1-4-9-9-3-0-7-3-6" />
<path style="fill:#d8c894;stroke:#000000;stroke-width:0.04646585;stroke-miterlimit:4;stroke-dasharray:none" d="m 44.07537,59.573099 0.782006,0.01074 v 0.718475 h -1.415257 c 0.500667,-0.06756 0.598887,-0.379037 0.633251,-0.72921 z" id="rect5536-6-2-34-6-7-8-2-9-7" />
<path style="fill:#d8c894;stroke:#000000;stroke-width:0.06425327;stroke-miterlimit:4;stroke-dasharray:none" d="m 43.600675,57.881041 h 8.291035 c 2.869148,-0.07254 -2.66704,9.862046 0.456448,12.51381 h -8.894017 c -2.115452,-0.944114 2.627757,-12.416399 0.146534,-12.51381 z" id="rect5511-8-4-80-9-4-4-8-8-33" />
<rect style="fill:#90846c;stroke:none;stroke-width:0.07242227;stroke-miterlimit:4;stroke-dasharray:none" id="rect5576-50-90-1-2-8-9-5-1" width="6.1322646" height="0.30357745" x="45.22533" y="60.841465" />
<rect style="fill:#90846c;stroke:none;stroke-width:0.07242227;stroke-miterlimit:4;stroke-dasharray:none" id="rect5576-7-9-2-9-23-7-2-3-9" width="6.1322646" height="0.30357745" x="45.055332" y="62.031487" />
<rect style="fill:#90846c;stroke:none;stroke-width:0.07242227;stroke-miterlimit:4;stroke-dasharray:none" id="rect5576-9-1-6-0-7-6-0-2-8" width="6.1322646" height="0.30357745" x="44.715328" y="63.221512" />
<rect style="fill:#90846c;stroke:none;stroke-width:0.07242227;stroke-miterlimit:4;stroke-dasharray:none" id="rect5576-5-7-6-8-6-8-4-0-9" width="6.1322646" height="0.30357745" x="44.496483" y="64.403725" />
<rect style="fill:#90846c;stroke:none;stroke-width:0.07242227;stroke-miterlimit:4;stroke-dasharray:none" id="rect5576-8-2-95-0-1-4-1-6-71" width="6.1322646" height="0.30357745" x="44.253624" y="65.539108" />
<rect style="fill:#90846c;stroke:none;stroke-width:0.07242227;stroke-miterlimit:4;stroke-dasharray:none" id="rect5576-0-6-8-7-1-1-4-2-9" width="6.1322646" height="0.30357745" x="44.083622" y="66.729126" />
<rect style="fill:#90846c;stroke:none;stroke-width:0.07242227;stroke-miterlimit:4;stroke-dasharray:none" id="rect5576-06-6-77-0-51-4-0-6-1" width="6.1322646" height="0.30357745" x="43.913624" y="67.919159" />
<rect style="fill:#90846c;stroke:none;stroke-width:0.07242227;stroke-miterlimit:4;stroke-dasharray:none" id="rect5576-4-6-99-4-2-4-5-1-6" width="6.1322646" height="0.30357745" x="45.367378" y="59.620262" />
<rect style="fill:#90846c;stroke:none;stroke-width:0.07242227;stroke-miterlimit:4;stroke-dasharray:none" id="rect5576-6-3-7-6-9-8-2-3-61" width="6.1322646" height="0.30357745" x="44.083622" y="69.109184" />
<rect style="fill:#908470;fill-opacity:1;stroke:#000000;stroke-width:0.14240505;stroke-miterlimit:4;stroke-dasharray:none;stroke-opacity:1" id="rect8098-3" width="156.72942" height="119.86733" x="45.472153" y="68.087769" />
<rect id="rect3713-81-3-0-4-5" width="97.707855" height="43.231621" x="62.828552" y="86.193031" style="fill:#909894;stroke:#000000;stroke-width:0.17131972" />
<rect id="rect3713-81-1-9-6-3-6-5" width="82.963737" height="10.101231" x="73.406601" y="102.39104" style="fill:#6b8e23;stroke:#000000;stroke-width:0.07630854" />
<rect id="rect3713-81-1-9-3-3-4-0-0" width="82.963737" height="10.101231" x="73.406601" y="116.05736" style="fill:#b8860b;stroke:#000000;stroke-width:0.07630854" />
<text style="font-style:normal;font-weight:normal;font-size:9.59043121px;line-height:1.25;font-family:sans-serif;letter-spacing:0px;word-spacing:0px;fill:#000000;fill-opacity:1;stroke:none;stroke-width:0.17982058" x="78.429733" y="96.592361" id="text4075-0-1-7">
<tspan id="tspan4073-0-0-1" x="78.429733" y="96.592361" style="font-size:9.59043121px;stroke-width:0.17982058">Shard</tspan>
</text>
<path style="fill:#a8c0b4;fill-opacity:1;stroke:#000000;stroke-width:0.13592738;stroke-miterlimit:4;stroke-dasharray:none;stroke-opacity:1" d="m 69.493018,96.720782 v 23.006858 1.99805 h 1.634536 3.005674 l -0.01934,1.63876 3.210087,-2.5807 -3.148618,-2.63761 -0.01864,1.5815 H 71.12752 v -11.03191 h 3.377255 l -0.01934,1.6384 3.210077,-2.58036 -3.148268,-2.63795 -0.01864,1.58186 H 71.12747 v -9.976898 z" id="rect5925-5-2" />
<circle style="fill:#a8c0b4;fill-opacity:1;stroke:#000000;stroke-width:0.11888283;stroke-miterlimit:4;stroke-dasharray:none;stroke-opacity:1" id="path7514-9-6-8-8" cx="70.596527" cy="93.84993" r="6.2753177" />
<circle style="fill:#c4c8b7;fill-opacity:1;stroke:#000000;stroke-width:0.12303814;stroke-miterlimit:4;stroke-dasharray:none;stroke-opacity:1" id="path7516-4-0-2-2" cx="70.623383" cy="93.823036" r="5.3437061" />
<path style="fill:#ccb470;stroke:#000000;stroke-width:0.04791785;stroke-miterlimit:4;stroke-dasharray:none" d="m 67.470321,88.94682 1.736394,0.02691 -0.449066,1.775391 h -1.466956 c -0.681524,0.01029 -1.020187,-1.777571 0.179628,-1.802293 z" id="rect5514-1-4-9-9-3-5-0-0-0" />
<path style="fill:#d8c894;stroke:#000000;stroke-width:0.03465263;stroke-miterlimit:4;stroke-dasharray:none" d="m 67.755148,90.210726 0.583192,0.008 v 0.535821 h -1.055449 c 0.373376,-0.05034 0.44663,-0.282684 0.472257,-0.543825 z" id="rect5536-6-2-34-6-7-9-4-2-0" />
<path style="fill:#d8c894;stroke:#000000;stroke-width:0.04791785;stroke-miterlimit:4;stroke-dasharray:none" d="m 67.401136,88.948854 h 6.183163 c 2.139711,-0.05414 -1.988982,7.354769 0.340402,9.332368 h -6.632848 c -1.577628,-0.704097 1.95969,-9.259733 0.109283,-9.332368 z" id="rect5511-8-4-80-9-4-45-1-9-6" />
<rect style="fill:#90846c;stroke:none;stroke-width:0.05401004;stroke-miterlimit:4;stroke-dasharray:none" id="rect5576-50-90-1-2-9-3-6-2" width="4.5732312" height="0.22639757" x="68.612755" y="91.156746" />
<rect style="fill:#90846c;stroke:none;stroke-width:0.05401004;stroke-miterlimit:4;stroke-dasharray:none" id="rect5576-7-9-2-9-23-9-1-6-2" width="4.5732312" height="0.22639757" x="68.485977" y="92.044228" />
<rect style="fill:#90846c;stroke:none;stroke-width:0.05401004;stroke-miterlimit:4;stroke-dasharray:none" id="rect5576-9-1-6-0-7-8-8-0-7" width="4.5732312" height="0.22639757" x="68.23243" y="92.931732" />
<rect style="fill:#90846c;stroke:none;stroke-width:0.05401004;stroke-miterlimit:4;stroke-dasharray:none" id="rect5576-5-7-6-8-6-7-6-7-4" width="4.5732312" height="0.22639757" x="68.069221" y="93.813362" />
<rect style="fill:#90846c;stroke:none;stroke-width:0.05401004;stroke-miterlimit:4;stroke-dasharray:none" id="rect5576-8-2-95-0-1-0-1-4-4" width="4.5732312" height="0.22639757" x="67.888077" y="94.66011" />
<rect style="fill:#90846c;stroke:none;stroke-width:0.05401004;stroke-miterlimit:4;stroke-dasharray:none" id="rect5576-0-6-8-7-1-13-6-6-8" width="4.5732312" height="0.22639757" x="67.761307" y="95.547569" />
<rect style="fill:#90846c;stroke:none;stroke-width:0.05401004;stroke-miterlimit:4;stroke-dasharray:none" id="rect5576-06-6-77-0-51-1-30-1-0" width="4.5732312" height="0.22639757" x="67.634529" y="96.435051" />
<rect style="fill:#90846c;stroke:none;stroke-width:0.05401004;stroke-miterlimit:4;stroke-dasharray:none" id="rect5576-4-6-99-4-2-40-8-6-3" width="4.5732312" height="0.22639757" x="68.718712" y="90.24604" />
<rect style="fill:#90846c;stroke:none;stroke-width:0.05401004;stroke-miterlimit:4;stroke-dasharray:none" id="rect5576-6-3-7-6-9-4-1-2-9" width="4.5732312" height="0.22639757" x="67.761307" y="97.32254" />
<rect id="rect3713-81-3-0-4-5-8" width="97.707855" height="43.231621" x="75.774895" y="104.70662" style="fill:#909894;stroke:#000000;stroke-width:0.17131972" />
<rect id="rect3713-81-1-9-6-3-6-5-4" width="82.963737" height="10.101231" x="86.352936" y="120.90462" style="fill:#6b8e23;stroke:#000000;stroke-width:0.07630854" />
<rect id="rect3713-81-1-9-3-3-4-0-0-2" width="82.963737" height="10.101231" x="86.352936" y="134.57094" style="fill:#b8860b;stroke:#000000;stroke-width:0.07630854" />
<text style="font-style:normal;font-weight:normal;font-size:9.59043121px;line-height:1.25;font-family:sans-serif;letter-spacing:0px;word-spacing:0px;fill:#000000;fill-opacity:1;stroke:none;stroke-width:0.17982058" x="91.376076" y="115.10597" id="text4075-0-1-7-0">
<tspan id="tspan4073-0-0-1-1" x="91.376076" y="115.10597" style="font-size:9.59043121px;stroke-width:0.17982058">Shard</tspan>
</text>
<path style="fill:#a8c0b4;fill-opacity:1;stroke:#000000;stroke-width:0.13592738;stroke-miterlimit:4;stroke-dasharray:none;stroke-opacity:1" d="m 82.43936,115.23439 v 23.00686 1.99805 h 1.634537 3.005664 l -0.01934,1.63875 3.210077,-2.5807 -3.148607,-2.63761 -0.01864,1.58151 h -3.029196 v -11.03192 h 3.377247 l -0.01934,1.6384 3.21007,-2.58036 -3.148261,-2.63795 -0.01864,1.58187 h -3.401134 v -9.9769 z" id="rect5925-5-2-1" />
<circle style="fill:#a8c0b4;fill-opacity:1;stroke:#000000;stroke-width:0.11888283;stroke-miterlimit:4;stroke-dasharray:none;stroke-opacity:1" id="path7514-9-6-8-8-3" cx="83.54287" cy="112.36353" r="6.2753177" />
<circle style="fill:#c4c8b7;fill-opacity:1;stroke:#000000;stroke-width:0.12303814;stroke-miterlimit:4;stroke-dasharray:none;stroke-opacity:1" id="path7516-4-0-2-2-4" cx="83.569733" cy="112.33665" r="5.3437061" />
<path style="fill:#ccb470;stroke:#000000;stroke-width:0.04791785;stroke-miterlimit:4;stroke-dasharray:none" d="m 80.416663,107.46042 1.736394,0.0269 -0.449066,1.77539 h -1.466955 c -0.681525,0.0103 -1.020188,-1.77757 0.179627,-1.80229 z" id="rect5514-1-4-9-9-3-5-0-0-0-7" />
<path style="fill:#d8c894;stroke:#000000;stroke-width:0.03465263;stroke-miterlimit:4;stroke-dasharray:none" d="m 80.701489,108.72432 0.583193,0.008 v 0.53583 h -1.055449 c 0.373377,-0.0503 0.44663,-0.28269 0.472256,-0.54383 z" id="rect5536-6-2-34-6-7-9-4-2-0-0" />
<path style="fill:#d8c894;stroke:#000000;stroke-width:0.04791785;stroke-miterlimit:4;stroke-dasharray:none" d="m 80.347478,107.46246 h 6.183163 c 2.139704,-0.0542 -1.988981,7.35476 0.340403,9.33235 h -6.632848 c -1.577629,-0.70408 1.959689,-9.25972 0.109282,-9.33235 z" id="rect5511-8-4-80-9-4-45-1-9-6-9" />
<rect style="fill:#90846c;stroke:none;stroke-width:0.05401004;stroke-miterlimit:4;stroke-dasharray:none" id="rect5576-50-90-1-2-9-3-6-2-0" width="4.5732312" height="0.22639757" x="81.559105" y="109.67036" />
<rect style="fill:#90846c;stroke:none;stroke-width:0.05401004;stroke-miterlimit:4;stroke-dasharray:none" id="rect5576-7-9-2-9-23-9-1-6-2-3" width="4.5732312" height="0.22639757" x="81.43232" y="110.55784" />
<rect style="fill:#90846c;stroke:none;stroke-width:0.05401004;stroke-miterlimit:4;stroke-dasharray:none" id="rect5576-9-1-6-0-7-8-8-0-7-6" width="4.5732312" height="0.22639757" x="81.178772" y="111.44532" />
<rect style="fill:#90846c;stroke:none;stroke-width:0.05401004;stroke-miterlimit:4;stroke-dasharray:none" id="rect5576-5-7-6-8-6-7-6-7-4-7" width="4.5732312" height="0.22639757" x="81.015556" y="112.327" />
<rect style="fill:#90846c;stroke:none;stroke-width:0.05401004;stroke-miterlimit:4;stroke-dasharray:none" id="rect5576-8-2-95-0-1-0-1-4-4-2" width="4.5732312" height="0.22639757" x="80.834419" y="113.17372" />
<rect style="fill:#90846c;stroke:none;stroke-width:0.05401004;stroke-miterlimit:4;stroke-dasharray:none" id="rect5576-0-6-8-7-1-13-6-6-8-5" width="4.5732312" height="0.22639757" x="80.707642" y="114.0612" />
<rect style="fill:#90846c;stroke:none;stroke-width:0.05401004;stroke-miterlimit:4;stroke-dasharray:none" id="rect5576-06-6-77-0-51-1-30-1-0-0" width="4.5732312" height="0.22639757" x="80.580872" y="114.94865" />
<rect style="fill:#90846c;stroke:none;stroke-width:0.05401004;stroke-miterlimit:4;stroke-dasharray:none" id="rect5576-4-6-99-4-2-40-8-6-3-0" width="4.5732312" height="0.22639757" x="81.665062" y="108.75965" />
<rect style="fill:#90846c;stroke:none;stroke-width:0.05401004;stroke-miterlimit:4;stroke-dasharray:none" id="rect5576-6-3-7-6-9-4-1-2-9-3" width="4.5732312" height="0.22639757" x="80.707642" y="115.83614" />
<rect id="rect3713-81-3-0-4-5-3" width="97.707855" height="43.231621" x="88.642754" y="122.93348" style="fill:#909894;stroke:#000000;stroke-width:0.17131972" />
<rect id="rect3713-81-1-9-6-3-6-5-1" width="82.963737" height="10.101231" x="99.220871" y="139.13147" style="fill:#6b8e23;stroke:#000000;stroke-width:0.07630854" />
<rect id="rect3713-81-1-9-3-3-4-0-0-4" width="82.963737" height="10.101231" x="99.220871" y="152.79778" style="fill:#b8860b;stroke:#000000;stroke-width:0.07630854" />
<text style="font-style:normal;font-weight:normal;font-size:9.59043121px;line-height:1.25;font-family:sans-serif;letter-spacing:0px;word-spacing:0px;fill:#000000;fill-opacity:1;stroke:none;stroke-width:0.17982058" x="104.24399" y="133.33281" id="text4075-0-1-7-3">
<tspan id="tspan4073-0-0-1-8" x="104.24399" y="133.33281" style="font-size:9.59043121px;stroke-width:0.17982058">Shard</tspan>
</text>
<path style="fill:#a8c0b4;fill-opacity:1;stroke:#000000;stroke-width:0.13592738;stroke-miterlimit:4;stroke-dasharray:none;stroke-opacity:1" d="m 95.30719,133.46125 v 23.00685 1.99804 h 1.634536 3.005674 l -0.01934,1.63877 3.21009,-2.5807 -3.14862,-2.63761 -0.01864,1.5815 h -3.029204 v -11.03191 h 3.377254 l -0.0193,1.63839 3.21007,-2.58035 -3.14826,-2.63796 -0.0186,1.58187 h -3.401131 v -9.97689 z" id="rect5925-5-2-10" />
<circle style="fill:#a8c0b4;fill-opacity:1;stroke:#000000;stroke-width:0.11888283;stroke-miterlimit:4;stroke-dasharray:none;stroke-opacity:1" id="path7514-9-6-8-8-9" cx="96.410744" cy="130.59038" r="6.2753177" />
<circle style="fill:#c4c8b7;fill-opacity:1;stroke:#000000;stroke-width:0.12303814;stroke-miterlimit:4;stroke-dasharray:none;stroke-opacity:1" id="path7516-4-0-2-2-6" cx="96.437592" cy="130.56349" r="5.3437061" />
<path style="fill:#ccb470;stroke:#000000;stroke-width:0.04791785;stroke-miterlimit:4;stroke-dasharray:none" d="m 93.284493,125.68729 1.736394,0.0269 -0.449066,1.7754 h -1.466956 c -0.681524,0.0103 -1.020187,-1.77758 0.179628,-1.8023 z" id="rect5514-1-4-9-9-3-5-0-0-0-0" />
<path style="fill:#d8c894;stroke:#000000;stroke-width:0.03465263;stroke-miterlimit:4;stroke-dasharray:none" d="m 93.569319,126.95119 0.583193,0.008 v 0.53583 h -1.055449 c 0.373376,-0.0503 0.44663,-0.28269 0.472256,-0.54383 z" id="rect5536-6-2-34-6-7-9-4-2-0-8" />
<path style="fill:#d8c894;stroke:#000000;stroke-width:0.04791785;stroke-miterlimit:4;stroke-dasharray:none" d="m 93.215308,125.68931 h 6.183163 c 2.139709,-0.0542 -1.988982,7.35477 0.340402,9.33237 h -6.632848 c -1.577629,-0.70409 1.95969,-9.25973 0.109283,-9.33237 z" id="rect5511-8-4-80-9-4-45-1-9-6-2" />
<rect style="fill:#90846c;stroke:none;stroke-width:0.05401004;stroke-miterlimit:4;stroke-dasharray:none" id="rect5576-50-90-1-2-9-3-6-2-3" width="4.5732312" height="0.22639757" x="94.427002" y="127.89719" />
<rect style="fill:#90846c;stroke:none;stroke-width:0.05401004;stroke-miterlimit:4;stroke-dasharray:none" id="rect5576-7-9-2-9-23-9-1-6-2-8" width="4.5732312" height="0.22639757" x="94.300217" y="128.78467" />
<rect style="fill:#90846c;stroke:none;stroke-width:0.05401004;stroke-miterlimit:4;stroke-dasharray:none" id="rect5576-9-1-6-0-7-8-8-0-7-2" width="4.5732312" height="0.22639757" x="94.046638" y="129.67213" />
<rect style="fill:#90846c;stroke:none;stroke-width:0.05401004;stroke-miterlimit:4;stroke-dasharray:none" id="rect5576-5-7-6-8-6-7-6-7-4-1" width="4.5732312" height="0.22639757" x="93.88343" y="130.55382" />
<rect style="fill:#90846c;stroke:none;stroke-width:0.05401004;stroke-miterlimit:4;stroke-dasharray:none" id="rect5576-8-2-95-0-1-0-1-4-4-4" width="4.5732312" height="0.22639757" x="93.702339" y="131.40056" />
<rect style="fill:#90846c;stroke:none;stroke-width:0.05401004;stroke-miterlimit:4;stroke-dasharray:none" id="rect5576-0-6-8-7-1-13-6-6-8-4" width="4.5732312" height="0.22639757" x="93.575546" y="132.28802" />
<rect style="fill:#90846c;stroke:none;stroke-width:0.05401004;stroke-miterlimit:4;stroke-dasharray:none" id="rect5576-06-6-77-0-51-1-30-1-0-2" width="4.5732312" height="0.22639757" x="93.448784" y="133.17549" />
<rect style="fill:#90846c;stroke:none;stroke-width:0.05401004;stroke-miterlimit:4;stroke-dasharray:none" id="rect5576-4-6-99-4-2-40-8-6-3-9" width="4.5732312" height="0.22639757" x="94.532913" y="126.98646" />
<rect style="fill:#90846c;stroke:none;stroke-width:0.05401004;stroke-miterlimit:4;stroke-dasharray:none" id="rect5576-6-3-7-6-9-4-1-2-9-4" width="4.5732312" height="0.22639757" x="93.575546" y="134.06299" />
<rect id="rect3713-81-3-0-4" width="97.707855" height="43.231621" x="101.33905" y="141.68848" style="fill:#909894;stroke:#000000;stroke-width:0.17131972" />
<rect id="rect3713-81-1-9-6-3-6" width="82.963737" height="10.101231" x="111.91713" y="157.88649" style="fill:#6b8e23;stroke:#000000;stroke-width:0.07630854" />
<rect id="rect3713-81-1-9-3-3-4-0" width="82.963737" height="10.101231" x="111.91713" y="171.55281" style="fill:#b8860b;stroke:#000000;stroke-width:0.07630854" />
<text style="font-style:normal;font-weight:normal;font-size:7.19282341px;line-height:1.25;font-family:sans-serif;letter-spacing:0px;word-spacing:0px;fill:#000000;fill-opacity:1;stroke:none;stroke-width:0.17982058" x="122.09376" y="165.5746" id="text3803-5-4-0">
<tspan id="tspan3801-2-3-9" x="122.09376" y="165.5746" style="stroke-width:0.17982058">Read connection</tspan>
</text>
<text style="font-style:normal;font-weight:normal;font-size:7.19282341px;line-height:1.25;font-family:sans-serif;letter-spacing:0px;word-spacing:0px;fill:#000000;fill-opacity:1;stroke:none;stroke-width:0.17982058" x="121.91216" y="179.60062" id="text3813-6-3-7">
<tspan id="tspan3811-8-6-1" x="121.91216" y="179.60062" style="stroke-width:0.17982058">Write connection</tspan>
</text>
<g id="g3862-6-1-7" transform="matrix(0.1546868,0,0,0.18021293,205.58293,146.27747)">
<path id="path3819-1-6-7-0" transform="scale(0.26458333)" d="m -432.26172,284.34961 v 125.54687 a 61.114226,17.172593 0 0 0 -0.084,0.46875 61.114226,17.172593 0 0 0 61.11523,17.17383 61.114226,17.172593 0 0 0 61.08008,-16.99218 h 0.0293 v -0.16016 a 61.114226,17.172593 0 0 0 0.004,-0.0215 61.114226,17.172593 0 0 0 -0.004,-0.0312 V 284.34961 Z" style="fill:#ffdd55;stroke:#000000;stroke-width:0.99999994" />
<ellipse ry="4.543582" rx="16.169806" cy="75.171661" cx="-98.22155" id="path3819-0-9-2" style="fill:#ffdd55;stroke:#000000;stroke-width:0.26458332" />
<path id="path3857-6-5-1" d="m -131.86795,76.857711 -0.39909,28.957209 20.75257,-14.319492 z" style="fill:#000000;stroke:#000000;stroke-width:0.35278076px;stroke-linecap:butt;stroke-linejoin:miter;stroke-opacity:1" />
</g>
<g id="g3862-4-4-4-4" transform="matrix(0.1546868,0,0,0.18021293,205.53598,159.77644)">
<path id="path3819-1-2-0-1-3" transform="scale(0.26458333)" d="m -432.26172,284.34961 v 125.54687 a 61.114226,17.172593 0 0 0 -0.084,0.46875 61.114226,17.172593 0 0 0 61.11523,17.17383 61.114226,17.172593 0 0 0 61.08008,-16.99218 h 0.0293 v -0.16016 a 61.114226,17.172593 0 0 0 0.004,-0.0215 61.114226,17.172593 0 0 0 -0.004,-0.0312 V 284.34961 Z" style="fill:#ffdd55;stroke:#000000;stroke-width:0.99999994" />
<ellipse ry="4.543582" rx="16.169806" cy="75.171661" cx="-98.22155" id="path3819-3-9-1-2" style="fill:#ffdd55;stroke:#000000;stroke-width:0.26458332" />
<path id="path3857-8-4-5-2" d="m -131.86795,76.857711 -0.39909,28.957209 20.75257,-14.319492 z" style="fill:#000000;stroke:#000000;stroke-width:0.35278076px;stroke-linecap:butt;stroke-linejoin:miter;stroke-opacity:1" />
</g>
<text style="font-style:normal;font-weight:normal;font-size:9.59043121px;line-height:1.25;font-family:sans-serif;letter-spacing:0px;word-spacing:0px;fill:#000000;fill-opacity:1;stroke:none;stroke-width:0.17982058" x="116.94026" y="152.08781" id="text4075-0-1">
<tspan id="tspan4073-0-0" x="116.94026" y="152.08781" style="font-size:9.59043121px;stroke-width:0.17982058">Shard</tspan>
</text>
<g transform="matrix(0.38135733,0,0,0.38135733,139.50717,149.08181)" id="g7597-83-5-1-8">
<circle r="10.557146" cy="36.545841" cx="-56.794773" id="path7514-9-1-4-0" style="fill:#767a3e;fill-opacity:1;stroke:#000000;stroke-width:0.2;stroke-miterlimit:4;stroke-dasharray:none;stroke-opacity:1" />
<circle r="8.9898701" cy="36.500637" cx="-56.749565" id="path7516-4-2-2-0" style="fill:#9c9858;fill-opacity:1;stroke:#000000;stroke-width:0.20699058;stroke-miterlimit:4;stroke-dasharray:none;stroke-opacity:1" />
<path id="rect5514-1-4-9-9-3-5-4-9-79" d="m -62.054023,28.297425 2.921182,0.04525 -0.755478,2.986794 h -2.4679 c -1.146547,0.0173 -1.716295,-2.990449 0.302196,-3.032048 z" style="fill:#ccb470;stroke:#000000;stroke-width:0.08061358;stroke-miterlimit:4;stroke-dasharray:none" />
<path id="rect5536-6-2-34-6-7-9-8-6-9" d="m -61.57486,30.42373 0.981124,0.01347 v 0.901416 h -1.775615 c 0.628149,-0.08477 0.751379,-0.475547 0.794491,-0.914883 z" style="fill:#d8c894;stroke:#000000;stroke-width:0.05829712;stroke-miterlimit:4;stroke-dasharray:none" />
<path id="rect5511-8-4-80-9-4-45-50-6-45" d="m -62.170421,28.300836 h 10.402118 c 3.599698,-0.09101 -3.346128,12.373144 0.572671,15.700108 h -11.158636 c -2.654093,-1.184507 3.296845,-15.577895 0.183847,-15.700108 z" style="fill:#d8c894;stroke:#000000;stroke-width:0.08061358;stroke-miterlimit:4;stroke-dasharray:none" />
<rect y="32.015049" x="-60.132092" height="0.38087514" width="7.6936779" id="rect5576-50-90-1-2-9-7-1-70" style="fill:#90846c;stroke:none;stroke-width:0.09086263;stroke-miterlimit:4;stroke-dasharray:none" />
<rect y="33.50808" x="-60.345379" height="0.38087514" width="7.6936779" id="rect5576-7-9-2-9-23-9-6-5-8" style="fill:#90846c;stroke:none;stroke-width:0.09086263;stroke-miterlimit:4;stroke-dasharray:none" />
<rect y="35.001114" x="-60.771954" height="0.38087514" width="7.6936779" id="rect5576-9-1-6-0-7-8-0-8-6" style="fill:#90846c;stroke:none;stroke-width:0.09086263;stroke-miterlimit:4;stroke-dasharray:none" />
<rect y="36.484348" x="-61.046516" height="0.38087514" width="7.6936779" id="rect5576-5-7-6-8-6-7-1-98-3" style="fill:#90846c;stroke:none;stroke-width:0.09086263;stroke-miterlimit:4;stroke-dasharray:none" />
<rect y="37.908821" x="-61.351215" height="0.38087514" width="7.6936779" id="rect5576-8-2-95-0-1-0-3-4-98" style="fill:#90846c;stroke:none;stroke-width:0.09086263;stroke-miterlimit:4;stroke-dasharray:none" />
<rect y="39.401855" x="-61.564503" height="0.38087514" width="7.6936779" id="rect5576-0-6-8-7-1-13-8-8-7" style="fill:#90846c;stroke:none;stroke-width:0.09086263;stroke-miterlimit:4;stroke-dasharray:none" />
<rect y="40.894886" x="-61.77779" height="0.38087514" width="7.6936779" id="rect5576-06-6-77-0-51-1-9-0-8" style="fill:#90846c;stroke:none;stroke-width:0.09086263;stroke-miterlimit:4;stroke-dasharray:none" />
<rect y="30.482903" x="-59.953876" height="0.38087514" width="7.6936779" id="rect5576-4-6-99-4-2-40-9-8-6" style="fill:#90846c;stroke:none;stroke-width:0.09086263;stroke-miterlimit:4;stroke-dasharray:none" />
<rect y="42.38792" x="-61.564503" height="0.38087514" width="7.6936779" id="rect5576-6-3-7-6-9-4-2-7-59" style="fill:#90846c;stroke:none;stroke-width:0.09086263;stroke-miterlimit:4;stroke-dasharray:none" />
</g>
<g transform="matrix(0.38135733,0,0,0.38135733,139.59084,162.54169)" id="g7597-83-5-1-4-8">
<circle r="10.557146" cy="36.545841" cx="-56.794773" id="path7514-9-1-4-24-9" style="fill:#767a3e;fill-opacity:1;stroke:#000000;stroke-width:0.2;stroke-miterlimit:4;stroke-dasharray:none;stroke-opacity:1" />
<circle r="8.9898701" cy="36.500637" cx="-56.749565" id="path7516-4-2-2-93-2" style="fill:#9c9858;fill-opacity:1;stroke:#000000;stroke-width:0.20699058;stroke-miterlimit:4;stroke-dasharray:none;stroke-opacity:1" />
<path id="rect5514-1-4-9-9-3-5-4-9-4-7" d="m -62.054023,28.297425 2.921182,0.04525 -0.755478,2.986794 h -2.4679 c -1.146547,0.0173 -1.716295,-2.990449 0.302196,-3.032048 z" style="fill:#ccb470;stroke:#000000;stroke-width:0.08061358;stroke-miterlimit:4;stroke-dasharray:none" />
<path id="rect5536-6-2-34-6-7-9-8-6-6-2" d="m -61.57486,30.42373 0.981124,0.01347 v 0.901416 h -1.775615 c 0.628149,-0.08477 0.751379,-0.475547 0.794491,-0.914883 z" style="fill:#d8c894;stroke:#000000;stroke-width:0.05829712;stroke-miterlimit:4;stroke-dasharray:none" />
<path id="rect5511-8-4-80-9-4-45-50-6-0-4" d="m -62.170421,28.300836 h 10.402118 c 3.599698,-0.09101 -3.346128,12.373144 0.572671,15.700108 h -11.158636 c -2.654093,-1.184507 3.296845,-15.577895 0.183847,-15.700108 z" style="fill:#d8c894;stroke:#000000;stroke-width:0.08061358;stroke-miterlimit:4;stroke-dasharray:none" />
<rect y="32.015049" x="-60.132092" height="0.38087514" width="7.6936779" id="rect5576-50-90-1-2-9-7-1-3-1" style="fill:#90846c;stroke:none;stroke-width:0.09086263;stroke-miterlimit:4;stroke-dasharray:none" />
<rect y="33.50808" x="-60.345379" height="0.38087514" width="7.6936779" id="rect5576-7-9-2-9-23-9-6-5-9-3" style="fill:#90846c;stroke:none;stroke-width:0.09086263;stroke-miterlimit:4;stroke-dasharray:none" />
<rect y="35.001114" x="-60.771954" height="0.38087514" width="7.6936779" id="rect5576-9-1-6-0-7-8-0-8-2-9" style="fill:#90846c;stroke:none;stroke-width:0.09086263;stroke-miterlimit:4;stroke-dasharray:none" />
<rect y="36.484348" x="-61.046516" height="0.38087514" width="7.6936779" id="rect5576-5-7-6-8-6-7-1-98-6-5" style="fill:#90846c;stroke:none;stroke-width:0.09086263;stroke-miterlimit:4;stroke-dasharray:none" />
<rect y="37.908821" x="-61.351215" height="0.38087514" width="7.6936779" id="rect5576-8-2-95-0-1-0-3-4-7-5" style="fill:#90846c;stroke:none;stroke-width:0.09086263;stroke-miterlimit:4;stroke-dasharray:none" />
<rect y="39.401855" x="-61.564503" height="0.38087514" width="7.6936779" id="rect5576-0-6-8-7-1-13-8-8-4-2" style="fill:#90846c;stroke:none;stroke-width:0.09086263;stroke-miterlimit:4;stroke-dasharray:none" />
<rect y="40.894886" x="-61.77779" height="0.38087514" width="7.6936779" id="rect5576-06-6-77-0-51-1-9-0-2-1" style="fill:#90846c;stroke:none;stroke-width:0.09086263;stroke-miterlimit:4;stroke-dasharray:none" />
<rect y="30.482903" x="-59.953876" height="0.38087514" width="7.6936779" id="rect5576-4-6-99-4-2-40-9-8-1-3" style="fill:#90846c;stroke:none;stroke-width:0.09086263;stroke-miterlimit:4;stroke-dasharray:none" />
<rect y="42.38792" x="-61.564503" height="0.38087514" width="7.6936779" id="rect5576-6-3-7-6-9-4-2-7-5-3" style="fill:#90846c;stroke:none;stroke-width:0.09086263;stroke-miterlimit:4;stroke-dasharray:none" />
</g>
<path style="fill:#a8c0b4;fill-opacity:1;stroke:#000000;stroke-width:0.13592738;stroke-miterlimit:4;stroke-dasharray:none;stroke-opacity:1" d="m 108.00349,152.21626 v 23.00687 1.99804 h 1.63453 3.00568 l -0.0194,1.63876 3.21008,-2.58071 -3.14861,-2.6376 -0.0187,1.58151 h -3.02921 V 164.1912 h 3.37726 l -0.0194,1.63841 3.21008,-2.58036 -3.14827,-2.63796 -0.0187,1.58187 h -3.40113 v -9.9769 z" id="rect5925-5" />
<circle style="fill:#a8c0b4;fill-opacity:1;stroke:#000000;stroke-width:0.11888283;stroke-miterlimit:4;stroke-dasharray:none;stroke-opacity:1" id="path7514-9-6-8" cx="109.10703" cy="149.3454" r="6.2753177" />
<circle style="fill:#c4c8b7;fill-opacity:1;stroke:#000000;stroke-width:0.12303814;stroke-miterlimit:4;stroke-dasharray:none;stroke-opacity:1" id="path7516-4-0-2" cx="109.1339" cy="149.31851" r="5.3437061" />
<path style="fill:#ccb470;stroke:#000000;stroke-width:0.04791785;stroke-miterlimit:4;stroke-dasharray:none" d="m 105.98079,144.4423 1.7364,0.0269 -0.44907,1.77539 h -1.46696 c -0.68152,0.0103 -1.02018,-1.77756 0.17963,-1.80229 z" id="rect5514-1-4-9-9-3-5-0-0" />
<path style="fill:#d8c894;stroke:#000000;stroke-width:0.03465263;stroke-miterlimit:4;stroke-dasharray:none" d="m 106.26562,145.70621 0.58319,0.008 v 0.53582 h -1.05545 c 0.37337,-0.0503 0.44663,-0.28269 0.47226,-0.54382 z" id="rect5536-6-2-34-6-7-9-4-2" />
<path style="fill:#d8c894;stroke:#000000;stroke-width:0.04791785;stroke-miterlimit:4;stroke-dasharray:none" d="m 105.91161,144.44434 h 6.18316 c 2.13971,-0.0542 -1.98898,7.35477 0.3404,9.33236 h -6.63285 c -1.57763,-0.70409 1.9597,-9.25972 0.10929,-9.33236 z" id="rect5511-8-4-80-9-4-45-1-9" />
<rect style="fill:#90846c;stroke:none;stroke-width:0.05401004;stroke-miterlimit:4;stroke-dasharray:none" id="rect5576-50-90-1-2-9-3-6" width="4.5732312" height="0.22639757" x="107.12324" y="146.65224" />
<rect style="fill:#90846c;stroke:none;stroke-width:0.05401004;stroke-miterlimit:4;stroke-dasharray:none" id="rect5576-7-9-2-9-23-9-1-6" width="4.5732312" height="0.22639757" x="106.99649" y="147.53969" />
<rect style="fill:#90846c;stroke:none;stroke-width:0.05401004;stroke-miterlimit:4;stroke-dasharray:none" id="rect5576-9-1-6-0-7-8-8-0" width="4.5732312" height="0.22639757" x="106.74293" y="148.42717" />
<rect style="fill:#90846c;stroke:none;stroke-width:0.05401004;stroke-miterlimit:4;stroke-dasharray:none" id="rect5576-5-7-6-8-6-7-6-7" width="4.5732312" height="0.22639757" x="106.57973" y="149.30882" />
<rect style="fill:#90846c;stroke:none;stroke-width:0.05401004;stroke-miterlimit:4;stroke-dasharray:none" id="rect5576-8-2-95-0-1-0-1-4" width="4.5732312" height="0.22639757" x="106.39857" y="150.15558" />
<rect style="fill:#90846c;stroke:none;stroke-width:0.05401004;stroke-miterlimit:4;stroke-dasharray:none" id="rect5576-0-6-8-7-1-13-6-6" width="4.5732312" height="0.22639757" x="106.2718" y="151.04305" />
<rect style="fill:#90846c;stroke:none;stroke-width:0.05401004;stroke-miterlimit:4;stroke-dasharray:none" id="rect5576-06-6-77-0-51-1-30-1" width="4.5732312" height="0.22639757" x="106.14501" y="151.93053" />
<rect style="fill:#90846c;stroke:none;stroke-width:0.05401004;stroke-miterlimit:4;stroke-dasharray:none" id="rect5576-4-6-99-4-2-40-8-6" width="4.5732312" height="0.22639757" x="107.22921" y="145.7415" />
<rect style="fill:#90846c;stroke:none;stroke-width:0.05401004;stroke-miterlimit:4;stroke-dasharray:none" id="rect5576-6-3-7-6-9-4-1-2" width="4.5732312" height="0.22639757" x="106.2718" y="152.81799" />
<text style="font-style:normal;font-weight:normal;font-size:12.27599239px;line-height:1.25;font-family:sans-serif;letter-spacing:0px;word-spacing:0px;fill:#e3dbdb;fill-opacity:1;stroke:none;stroke-width:0.17982058" x="65.974152" y="82.305771" id="text4246-6">
<tspan id="tspan4244-4" x="65.974152" y="82.305771" style="font-size:12.27599239px;fill:#e3dbdb;stroke-width:0.17982058">ShardSet</tspan>
</text>
<path style="fill:#987c84;fill-opacity:1;stroke:#000000;stroke-width:0.13592739;stroke-miterlimit:4;stroke-dasharray:none;stroke-opacity:1" d="m 55.129048,84.939558 v 63.177412 1.99804 h 1.634792 45.13303 l -0.0193,1.6388 3.21007,-2.58067 -3.14852,-2.63783 -0.0188,1.58166 H 56.763762 v -16.58018 h 32.673625 l -0.02196,1.86418 3.652438,-2.93594 -3.582115,-3.00146 -0.02119,1.79984 H 56.76384 v -15.79016 h 19.512911 l -0.01964,1.63839 3.210054,-2.58027 -3.148121,-2.63782 -0.01879,1.58165 h -19.5368 V 94.783527 h 6.706225 l -0.01926,1.638401 3.210069,-2.580277 -3.148523,-2.637819 -0.01841,1.58165 h -6.730129 v -7.845924 z" id="rect5925-3-9-5-2-8" />
<circle style="fill:#987c84;fill-opacity:1;stroke:#000000;stroke-width:0.15941049;stroke-miterlimit:4;stroke-dasharray:none;stroke-opacity:1" id="path7514-0-8" cx="55.848545" cy="78.160805" r="8.4145985" />
<circle style="fill:#a090b0;fill-opacity:1;stroke:#000000;stroke-width:0.16498235;stroke-miterlimit:4;stroke-dasharray:none;stroke-opacity:1" id="path7516-5-8" cx="55.884575" cy="78.124763" r="7.1653981" />
<path style="fill:#ccb470;stroke:#000000;stroke-width:0.06425327;stroke-miterlimit:4;stroke-dasharray:none" d="m 51.656646,71.586383 2.328336,0.03607 -0.602156,2.380632 h -1.967047 c -0.913858,0.01379 -1.367976,-2.383545 0.240867,-2.416702 z" id="rect5514-1-4-9-9-3-0-7" />
<path style="fill:#d8c894;stroke:#000000;stroke-width:0.04646585;stroke-miterlimit:4;stroke-dasharray:none" d="m 52.038563,73.28116 0.782008,0.01073 v 0.718474 h -1.415258 c 0.500668,-0.06756 0.598888,-0.379036 0.63325,-0.729207 z" id="rect5536-6-2-34-6-7-8-2" />
<path style="fill:#d8c894;stroke:#000000;stroke-width:0.06425327;stroke-miterlimit:4;stroke-dasharray:none" d="m 51.56387,71.589103 h 8.291035 c 2.869147,-0.07254 -2.66704,9.86204 0.456448,12.513808 H 51.417335 C 49.301884,83.158793 54.045093,71.686512 51.56387,71.589103 Z" id="rect5511-8-4-80-9-4-4-8" />
<rect style="fill:#90846c;stroke:none;stroke-width:0.07242229;stroke-miterlimit:4;stroke-dasharray:none" id="rect5576-50-90-1-2-8-9" width="6.1322651" height="0.30357745" x="53.18853" y="74.549522" />
<rect style="fill:#90846c;stroke:none;stroke-width:0.07242229;stroke-miterlimit:4;stroke-dasharray:none" id="rect5576-7-9-2-9-23-7-2" width="6.1322651" height="0.30357745" x="53.018532" y="75.739548" />
<rect style="fill:#90846c;stroke:none;stroke-width:0.07242229;stroke-miterlimit:4;stroke-dasharray:none" id="rect5576-9-1-6-0-7-6-0" width="6.1322651" height="0.30357745" x="52.67852" y="76.929565" />
<rect style="fill:#90846c;stroke:none;stroke-width:0.07242229;stroke-miterlimit:4;stroke-dasharray:none" id="rect5576-5-7-6-8-6-8-4" width="6.1322651" height="0.30357745" x="52.459679" y="78.111794" />
<rect style="fill:#90846c;stroke:none;stroke-width:0.07242229;stroke-miterlimit:4;stroke-dasharray:none" id="rect5576-8-2-95-0-1-4-1" width="6.1322651" height="0.30357745" x="52.21682" y="79.247177" />
<rect style="fill:#90846c;stroke:none;stroke-width:0.07242229;stroke-miterlimit:4;stroke-dasharray:none" id="rect5576-0-6-8-7-1-1-4" width="6.1322651" height="0.30357745" x="52.046818" y="80.437202" />
<rect style="fill:#90846c;stroke:none;stroke-width:0.07242229;stroke-miterlimit:4;stroke-dasharray:none" id="rect5576-06-6-77-0-51-4-0" width="6.1322651" height="0.30357745" x="51.876816" y="81.627228" />
<rect style="fill:#90846c;stroke:none;stroke-width:0.07242229;stroke-miterlimit:4;stroke-dasharray:none" id="rect5576-4-6-99-4-2-4-5" width="6.1322651" height="0.30357745" x="53.330574" y="73.328323" />
<rect style="fill:#90846c;stroke:none;stroke-width:0.07242229;stroke-miterlimit:4;stroke-dasharray:none" id="rect5576-6-3-7-6-9-8-2" width="6.1322651" height="0.30357745" x="52.046818" y="82.817253" />
<path style="fill:#d0d094;fill-opacity:1;stroke:#000000;stroke-width:0.13592739;stroke-miterlimit:4;stroke-dasharray:none;stroke-opacity:1" d="m 10.737701,19.724431 v 58.267109 1.998044 h 1.634536 34.084862 l -0.01934,1.638758 3.210077,-2.580703 -3.148615,-2.637605 -0.01864,1.581506 H 12.372205 V 65.853897 H 38.84152 l -0.01934,1.63839 3.210077,-2.580333 -3.14826,-2.63795 -0.01864,1.58186 H 12.372175 V 52.074628 h 18.163678 l -0.01934,1.638406 3.21007,-2.580356 -3.148261,-2.637954 -0.01864,1.581858 H 12.372144 V 19.724431 Z" id="rect5925-3-9-5-2" />
<g id="g8096" transform="matrix(0.67963688,0,0,0.67963688,23.713261,12.984558)">
<circle r="14.263808" cy="-2.7911499" cx="-17.923622" id="path7514-0" style="fill:#d0d094;fill-opacity:1;stroke:#000000;stroke-width:0.27022094;stroke-miterlimit:4;stroke-dasharray:none;stroke-opacity:1" />
<circle r="12.146255" cy="-2.8522253" cx="-17.862541" id="path7516-5" style="fill:#b0a464;fill-opacity:1;stroke:#000000;stroke-width:0.27966592;stroke-miterlimit:4;stroke-dasharray:none;stroke-opacity:1" />
<path id="rect5514-1-4-9-9-3-0" d="m -25.029419,-13.935623 3.946823,0.06114 -1.02073,4.0354707 h -3.334391 c -1.549105,0.023374 -2.318894,-4.0404097 0.408298,-4.0966137 z" style="fill:#ccb470;stroke:#000000;stroke-width:0.10891739;stroke-miterlimit:4;stroke-dasharray:none" />
<path id="rect5536-6-2-34-6-7-8" d="m -24.38202,-11.062762 1.325602,0.0182 v 1.2179072 h -2.399042 c 0.848695,-0.1145331 1.015192,-0.6425142 1.07344,-1.2361022 z" style="fill:#d8c894;stroke:#000000;stroke-width:0.0787655;stroke-miterlimit:4;stroke-dasharray:none" />
<path id="rect5511-8-4-80-9-4-4" d="m -25.186685,-13.931014 h 14.05435 c 4.8635682,-0.122964 -4.520969,16.7174115 0.773738,21.2124878 h -15.076484 c -3.585958,-1.6003928 4.454382,-21.0473658 0.248396,-21.2124878 z" style="fill:#d8c894;stroke:#000000;stroke-width:0.10891739;stroke-miterlimit:4;stroke-dasharray:none" />
<rect y="-8.9127245" x="-22.432688" height="0.51460212" width="10.394963" id="rect5576-50-90-1-2-8" style="fill:#90846c;stroke:none;stroke-width:0.12276492;stroke-miterlimit:4;stroke-dasharray:none" />
<rect y="-6.8954835" x="-22.720861" height="0.51460212" width="10.394963" id="rect5576-7-9-2-9-23-7" style="fill:#90846c;stroke:none;stroke-width:0.12276492;stroke-miterlimit:4;stroke-dasharray:none" />
<rect y="-4.8782382" x="-23.297209" height="0.51460212" width="10.394963" id="rect5576-9-1-6-0-7-6" style="fill:#90846c;stroke:none;stroke-width:0.12276492;stroke-miterlimit:4;stroke-dasharray:none" />
<rect y="-2.8742332" x="-23.668173" height="0.51460212" width="10.394963" id="rect5576-5-7-6-8-6-8" style="fill:#90846c;stroke:none;stroke-width:0.12276492;stroke-miterlimit:4;stroke-dasharray:none" />
<rect y="-0.94962144" x="-24.079853" height="0.51460212" width="10.394963" id="rect5576-8-2-95-0-1-4" style="fill:#90846c;stroke:none;stroke-width:0.12276492;stroke-miterlimit:4;stroke-dasharray:none" />
<rect y="1.0676242" x="-24.368027" height="0.51460212" width="10.394963" id="rect5576-0-6-8-7-1-1" style="fill:#90846c;stroke:none;stroke-width:0.12276492;stroke-miterlimit:4;stroke-dasharray:none" />
<rect y="3.0848646" x="-24.656199" height="0.51460212" width="10.394963" id="rect5576-06-6-77-0-51-4" style="fill:#90846c;stroke:none;stroke-width:0.12276492;stroke-miterlimit:4;stroke-dasharray:none" />
<rect y="-10.982814" x="-22.191902" height="0.51460212" width="10.394963" id="rect5576-4-6-99-4-2-4" style="fill:#90846c;stroke:none;stroke-width:0.12276492;stroke-miterlimit:4;stroke-dasharray:none" />
<rect y="5.1021104" x="-24.368027" height="0.51460212" width="10.394963" id="rect5576-6-3-7-6-9-8" style="fill:#90846c;stroke:none;stroke-width:0.12276492;stroke-miterlimit:4;stroke-dasharray:none" />
</g>
<text style="font-style:normal;font-weight:normal;font-size:15.34468937px;line-height:1.25;font-family:sans-serif;letter-spacing:0px;word-spacing:0px;fill:#e3dbdb;fill-opacity:1;stroke:none;stroke-width:0.17982058" x="29.124031" y="37.318592" id="text4246-6-9">
<tspan id="tspan4244-4-1" x="29.124031" y="37.318592" style="font-size:15.34468937px;fill:#e3dbdb;stroke-width:0.17982058">ShardSets</tspan>
</text>
</g>
</svg>
