<svg xmlns="http://www.w3.org/2000/svg" viewBox="0 0 619.16 289.05">
  <path d="M713.74,313.44c-6.6,10.62-16.72,21.45-30.35,26.49s-28.7,9.55-45.2,9.55a434.26,434.26,0,0,1-54.76-3.43q-28.71-2.88-52.13-2.88c-22.43,0-44.15,1.48-65.15,8.44s-37.34,14-49,27.08h-1.32c-12.1-14-28.43-21.27-49-27.77s-41.63-7.75-63.18-7.75q-23.43,0-52.12,2.88a434.3,434.3,0,0,1-54.77,3.43c-16.27,0-31.45-4.52-45.52-9.55s-23.86-15.87-29.36-26.49H109.69q8.91,24.18,46.85,37.84A234.71,234.71,0,0,0,236.7,365a500.54,500.54,0,0,0,54.11-3.09,478.93,478.93,0,0,1,51.46-3.09A123.29,123.29,0,0,1,384,366.39Q405.29,374,411.22,390h12.54Q429.68,374,451,366.39a123.29,123.29,0,0,1,41.73-7.62,479.26,479.26,0,0,1,51.47,3.09,500.36,500.36,0,0,0,54.1,3.09,234.32,234.32,0,0,0,80.33-13.67q37.77-13.66,46.68-37.84Z" transform="translate(-108.36 -100.9)" fill="#231f20"/>
  <rect y="57.25" width="142.86" height="142.86" fill="black"/>
  <rect x="157.47" y="57.25" width="142.86" height="142.86" fill="black"/>
  <rect x="314.94" y="57.25" width="142.86" height="142.86" fill="black"/>
  <rect x="476.3" y="57.25" width="142.86" height="142.86" fill="black"/>
  <text text-anchor="middle" font-size="48" x="309.58" y="40" fill="black" font-family="'Trebuchet MS', Helvetica, sans-serif">ShardChild</text>
  <text text-anchor="middle" font-size="32" x="71.4" y="137.36" fill="white" font-family="'Trebuchet MS', Helvetica, sans-serif">Origin</text>
  <text text-anchor="middle" font-size="32" x="228.9" y="137.36" fill="white" font-family="'Trebuchet MS', Helvetica, sans-serif">ShardId</text>
  <text text-anchor="middle" font-size="32" x="386.3" y="137.36" fill="white" font-family="'Trebuchet MS', Helvetica, sans-serif">RecordId</text>
  <text text-anchor="middle" font-size="32" x="547.7" y="137.36" fill="white" font-family="'Trebuchet MS', Helvetica, sans-serif">ChildId</text>

</svg>
