<svg id="Layer_1" data-name="Layer 1" xmlns="http://www.w3.org/2000/svg" viewBox="0 0 421.16 420.87">
  <title>Tightly Coupled</title>
  <circle cx="210.43" cy="210.43" r="210.43" fill="dimgray"/>
  <path d="M406.23,305.12c-21.8-28-46.91-45.48-73.14-43.74-20.82,1.39-47.42,12.66-72.32,40-6.84,7.51-7.07,20.49-2,25.1s14.45,1.93,20.87-5.95c23.24-28.51,35.65-32.77,48.82-34.17,19.91-2.11,38.45,13.54,61.32,38.88,12.5,13.87,31.06,33.55,21.5,82.06-5.56,1.85-11.26,3.79-16.21,5.39-12,3.89-31.2,1.41-32.56-9.26,0,0-4.06-7.5,9.88-31.63,3.85-6.67-2.47-13.88-8.5-13.88-4-.19-10.36,5.11-14.2,11.77-14,24.12-14.22,36.21-6.62,51.64,5.91,12,25.27,14.14,38.73,12.19a131.36,131.36,0,0,0,17.08-3.12c-7.55,5.87-17.11,11.79-28,15.22h-.09c-.35.11-34.56,9.44-38.06,10.25-16.48,3.82-38,6.75-49.92.62-12.69-6.52-29.73-15.82-37.65-43.62-2.18-7.68-5.35-13.7-15.63-13.17-8,.42-13.54,9.11-10.81,20.21,6.89,28.06,32.71,47.4,51.13,56.75,22.84,11.57,70.68-.93,95.68-6.18,10-2.11,14.4-6,35.91-15.92-5.26,16.77-20.29,42.82-26,52.33-15.95,26.47-77,47.4-105.76,41.29,0,0-31.76-3.92-64.5-45.45-9-11.47-23-15.69-31-9.37S167,514.25,176,525.73c32.71,41.52,74.31,54,104.93,55.5,39.33,1.85,95.92-17.9,118.34-53.5,37.34-59.25,44.44-108,65.58-108.4l51.12.05A211.78,211.78,0,0,0,512.55,351l-62.9,0C436.89,351.2,416.67,318.5,406.23,305.12Z" transform="translate(-96.13 -185.04)" fill="#fff"/>
  <path d="M463.17,293.23C435.76,246.59,392.26,223.71,361,215c-42.75-11.91-110.5,6.56-133.94,30.29-25.73,26-57.74,105.71-80.72,105.62H101A211.31,211.31,0,0,0,96.13,396a213.9,213.9,0,0,0,1.29,23.33h63.77c19.22.18,31,44.83,42.3,61.48,12.56,18.61,51.52,48.37,76.47,50,20.53,1.36,52.33.32,79.78-25.21,7.58-7.05,14.81-17.73,9.26-23.46-4.06-4.18-16.37-2.06-24.92,3.79-28.58,19.56-36.7,18.9-50.06,18.7-28.26-.42-56.68-13.25-72-42.24-12.12-22.88-16.67-29.67-17-43.1-.62-25.93,16.46-30.86,29.84-31.07,18.13-.28,22.94,10,31.27,26.75,4.91,9.87,28.39,23.62,49,29.17,7.71,2.08,29.53,2.51,30.44-4.69.95-7.48-21.12-13.58-29-14.82-21.19-3.34-32.65-21.87-37.24-28.39,26.54-1.38,49.12-1.75,58.82-16.14,5.42-8,4.94-14.9,13.9-30.76a14.35,14.35,0,0,1,14.81-7c13.74,2.46,17.13,22.37,10.74,50.92-1.89,8.47,6.6,13,11.07,12.76,1.33-.08,9.06,0,14.32-10.23,9.67-18.8-3.43-40.26-11-50.86-8.64-12.12-26.41-26.33-34.12-30.83-5-3.09-10,.31-14.81,15.74-5.48,17.67-11.64,27-16.43,33.75C317.76,376.15,298.54,380,286.08,380c-7.71,0-15.58-1-21.45-4.49-17.13-10.11-32.4-19.75-46.29-16.79-9.68,2.2-19,.07-25.94-7,4.7-11.27,12.35-25.44,22.63-41.86,5.55,17.58,9.61,25.69,17.88,34.92,13.87,15.46,34.86,22.67,57.39,13.92,17.53-6.79,29-14.54,43.51-38.42,4-6.6,2.1-14.82-1.61-18s-12.37-.38-16.9,5.87c-17.29,23.86-27.78,31.29-38.12,32.92-18.52,2.93-27.57-3.09-32.1-12.81-9.07-19.48-10.32-29.77-12.68-40.52,4.46-5,10.47-10.8,11-11.2,45.28-34.59,96.08-33.9,126.1-22.84,0,0,30.24,10.28,57.64,56.92,7.58,12.89,21.88,19.5,31.79,14.7S470.74,306.12,463.17,293.23Z" transform="translate(-96.13 -185.04)" fill="black"/>
</svg>
